<?xml version="1.0" standalone="no"?>
<!DOCTYPE svg PUBLIC "-//W3C//DTD SVG 1.1//EN" "http://www.w3.org/Graphics/SVG/1.1/DTD/svg11.dtd" >
<svg xmlns="http://www.w3.org/2000/svg" xmlns:xlink="http://www.w3.org/1999/xlink" version="1.1">
<metadata></metadata>
<defs>
<font id="antropos_freefont" horiz-adv-x="733" >
<font-face units-per-em="2048" ascent="1638" descent="-410" />
<missing-glyph horiz-adv-x="643" />
<glyph horiz-adv-x="0" />
<glyph unicode="&#xd;" horiz-adv-x="643" />
<glyph unicode=" "  horiz-adv-x="643" />
<glyph unicode="&#x09;" horiz-adv-x="643" />
<glyph unicode="&#xa0;" horiz-adv-x="643" />
<glyph unicode="!" horiz-adv-x="794" d="M236 -18l2 270l239 33l41 -84l-29 -197zM264 1468l379 41l-166 -1005l-176 -60q-8 240 -33 666q-10 117 -4 358z" />
<glyph unicode="&#x22;" horiz-adv-x="845" d="M113 1485l303 53q-29 -227 -123 -471l-129 -102zM451 1511l307 50q-53 -201 -119 -439l-147 -104z" />
<glyph unicode="#" horiz-adv-x="1441" d="M43 573l283 -32l-21 -510l256 -23l23 461l233 -23l2 -409l242 -37l4 455l256 6l-21 209l-241 -4l-8 190l209 8l-11 191l-211 14l21 350l-211 4l-35 -340l-186 -18l4 362l-168 -24l-60 -375l-278 -31l-8 -127l237 -18l-26 -143l-258 -21zM590 670l6 213l233 16l-4 -252z " />
<glyph unicode="$" horiz-adv-x="1058" d="M135 111q221 63 299 100q174 82 174 205q0 53 -30 114q-55 102 -177 203q-135 106 -172 166q-76 119 -71 322q4 109 235 215l4 180l260 16l-22 -88l231 25l21 -121q-450 -86 -438 -291q6 -121 98 -211q88 -72 176 -143q102 -86 127 -182q31 -125 31 -187 q0 -106 -119 -233q-49 -53 -133 -97l-4 -208l-228 -17l19 168l-217 -55z" />
<glyph unicode="%" horiz-adv-x="1716" d="M123 1104q0 106 33 199q55 80 147 124q82 37 152 33q147 -10 204 -37q82 -37 125 -145q23 -53 23 -113q0 -184 -168 -368q-195 -78 -229 -72q-150 18 -226 135q-61 98 -61 244zM213 -27q174 373 498 801q293 371 585 742l217 -3q-258 -319 -557 -745q-100 -144 -520 -758 zM319 1163q-2 -231 121 -231q33 0 74 12q96 31 96 156q0 72 -41 124t-116 52q-13 0 -29 -2q-74 -10 -105 -111zM872 352q0 111 43 228q55 78 150 114q76 31 149 25q147 -10 205 -35q82 -37 125 -147q23 -51 23 -119q0 -117 -56 -228q-57 -118 -145 -165q-66 -37 -197 -41 q-152 29 -227 135q-70 94 -70 233zM1079 424q-2 -258 123 -258q33 0 72 18q104 53 104 178q0 72 -43 123.5t-118 51.5q-17 0 -33 -2q-74 -10 -105 -111z" />
<glyph unicode="&#x26;" horiz-adv-x="1531" d="M113 426q16 162 112 246q70 63 226 110q-121 121 -142 160q-29 57 -26 207q0 154 151 235q131 70 324 70q117 0 211 -27q66 -20 133 -106q72 -94 67 -182q-6 -172 -114 -275q-49 -45 -236 -147q63 -66 117 -119q131 -129 201 -168l104 105l166 -166l-76 -80l117 -105 l-223 -184l-170 147q-266 -168 -520 -167q-86 0 -168 20q-109 27 -188 161t-66 265zM410 416q0 -80 39 -142q55 -86 167 -86q33 0 70 9q115 23 184 92q-68 59 -122 110q-127 126 -160 189q-45 -16 -78 -35q-82 -47 -96 -100q-4 -14 -4 -37zM516 1094q0 -53 49 -113 q57 -70 115 -137q96 41 168 108q86 86 92 181q8 131 -190 131q-70 0 -133.5 -19.5t-73.5 -46.5q-27 -61 -27 -104z" />
<glyph unicode="'" horiz-adv-x="487" d="M70 1542l323 37q-22 -144 -57 -238q-33 -78 -123 -299l-98 60z" />
<glyph unicode="(" horiz-adv-x="892" d="M141 786q2 254 125 484q100 186 307 395l181 -39q-113 -141 -240 -401q-143 -291 -145 -428q-2 -135 52 -248t109 -221q76 -190 183 -330l-199 -66q-150 143 -262.5 397.5t-110.5 456.5z" />
<glyph unicode=")" horiz-adv-x="813" d="M61 -10q113 141 240 399q143 291 143 430q2 145 -30 244q-43 106 -85 212.5t-227 342.5l191 63l110 -116q127 -133 201 -342q68 -199 66 -396q0 -180 -140.5 -470.5t-279.5 -407.5z" />
<glyph unicode="*" horiz-adv-x="1155" d="M111 1159l88 225l266 -137l-51 293l241 16l7 -296l276 188l86 -203l-344 -139l225 -199l-180 -139l-199 260l-155 -293l-191 119l215 227z" />
<glyph unicode="+" horiz-adv-x="1406" d="M154 559l30 180l363 19q29 106 28 211q0 25 -2 84q-2 53 -2 84l283 14l-53 -391l405 2l-24 -184q-68 -4 -166 4q-92 8 -219 -7l24 -446l-311 -35q47 369 59 488z" />
<glyph unicode="," horiz-adv-x="573" d="M10 -197q59 109 96 226q10 31 66 235l246 -24q-14 -86 -49 -205q-60 -96 -242 -264z" />
<glyph unicode="-" horiz-adv-x="942" d="M90 522l39 223q76 12 242 29q16 2 477 10l-80 -233q-113 -25 -334 -29h-344z" />
<glyph unicode="." horiz-adv-x="595" d="M111 0l26 274l283 9l26 -33l-32 -223z" />
<glyph unicode="/" horiz-adv-x="882" d="M-143 -59q186 301 374 604q190 317 334 637q139 307 256 475l205 -29q-414 -944 -924 -1769z" />
<glyph unicode="0" horiz-adv-x="1341" d="M88 791q0 137 35 280q41 178 115 246q172 158 436 158q205 0 307 -39q240 -94 240 -562q0 -289 -64 -471q-84 -236 -293 -360q-55 -35 -145 -41q-23 -2 -154 -2q-92 0 -192 51q-109 55 -150 131q-57 109 -98 297q-37 174 -37 312zM367 950q0 -61 16 -403 q16 -293 225 -359q172 53 226 129q43 59 69 250q35 227 35 363q0 180 -57 258q-68 94 -242 94q-141 0 -211 -98q-61 -86 -61 -234z" />
<glyph unicode="1" horiz-adv-x="757" d="M68 1245l41 141l497 64q-24 -240 -53 -705l-18 -710l-259 -37l-16 1194z" />
<glyph unicode="2" horiz-adv-x="1089" d="M49 -2q0 215 35 238q190 131 377 354q223 268 223 446q0 63 -20 135q-27 94 -72 107q-8 2 -43 2q-143 0 -346 -70l-70 131q53 47 207 84q135 33 225 33q59 0 234 -22q100 -55 143 -127t43 -185q0 -76 -18 -176q-20 -117 -52 -170q-80 -137 -215 -291q-120 -135 -243 -268 q223 -16 528 -37l-10 -168q-39 -4 -416 -4q-23 0 -510 -12z" />
<glyph unicode="3" horiz-adv-x="1165" d="M115 203q109 -20 239 -21q274 0 379 109q55 57 55 209q0 90 -79 176q-16 18 -107 18q-90 0 -319 -24l16 161q160 14 276 78q154 82 154 219q0 164 -209 164q-139 0 -313 -73l-47 147q238 94 428 94q238 0 336 -69q29 -20 58.5 -101.5t29.5 -124.5q0 -66 -62 -168 q-55 -90 -114 -143q121 -37 194.5 -132t73.5 -218q0 -143 -96 -309q-59 -104 -228 -164q-139 -49 -284 -49q-219 0 -344 38z" />
<glyph unicode="4" horiz-adv-x="1214" d="M25 471q94 172 284 512q47 86 148 246q61 80 329 221l265 18q-23 -156 -37 -391q-16 -209 -43 -631l209 13l-37 -185l-180 -6l-19 -233l-221 -55l-6 276l-553 -12zM315 438l394 -8v45q-2 111 9 329t9 326v44q-152 -113 -207 -226q-107 -215 -205 -510z" />
<glyph unicode="5" horiz-adv-x="1171" d="M100 23l31 170q63 -18 145 -19q61 0 154 14q106 18 145 41q59 35 107.5 131.5t48.5 167.5q0 131 -125 195q-78 39 -244 63q-31 -16 -77 -16q-78 0 -164 29q66 238 151 633q68 6 334 18q365 14 367 12q-2 -2 -4 0l-23 -145l-424 -60q-43 -117 -104 -301q41 4 104 5 q330 0 461 -144q33 -35 51 -127q16 -76 17 -143q0 -186 -167 -360.5t-356 -188.5q-81 -6 -155 -6q-137 0 -273 31z" />
<glyph unicode="6" horiz-adv-x="1224" d="M76 563q0 502 219 748q90 102 311 149q168 37 359 35h30l-37 -158q-311 -6 -378 -63q-195 -166 -195 -612q0 -477 250 -478q121 0 186 84q59 76 60 199q0 131 -66 211q-70 88 -197 92l-141 6l35 154q102 8 188 8q184 0 314 -102q139 -113 139 -295q0 -57 -29 -168 q-31 -117 -57 -162q-61 -98 -213 -168q-139 -63 -266 -63q-100 0 -219 47q-131 53 -179 127q-41 66 -77.5 198.5t-36.5 210.5z" />
<glyph unicode="7" horiz-adv-x="1007" d="M35 25q47 127 186 460q25 55 164 238q152 199 172 235q47 80 137 322l-631 -76l31 252q700 0 891 8l-14 -174q-27 -100 -53 -182q-69 -198 -132 -274q-68 -86 -118 -158q-127 -172 -160 -242q-35 -80 -72 -223q-49 -182 -69 -240z" />
<glyph unicode="8" horiz-adv-x="1222" d="M49 449q0 111 53 200q33 57 95 84q8 4 120 41q-127 76 -143 123q-31 88 -31 180q0 180 140 301q135 115 317 115t313 -63q170 -82 170 -244q0 -104 -12 -158q-18 -80 -76 -135q-8 -8 -41 -49q-18 -25 -61 -51q137 -74 172 -115q61 -66 61 -191q0 -106 -41 -215 q-43 -121 -116 -180q-144 -117 -394 -117q-242 0 -358 101q-168 145 -168 373zM365 446q0 -250 198 -249q276 0 277 229q0 94 -54 172q-59 88 -147 88q-119 0 -193 -59q-81 -66 -81 -181zM420 1104q0 -258 184 -258q106 0 160 102q33 63 53 197q-23 90 -45 119 q-35 45 -110 45q-147 0 -189 -29q-53 -37 -53 -176z" />
<glyph unicode="9" horiz-adv-x="1236" d="M76 991q0 109 43 205q70 154 200 215q109 51 295 51q211 0 347 -84q158 -102 157 -303q0 -297 -86 -545q-102 -293 -307 -450q-102 -80 -530 -100l-56 126q340 37 490 185q92 92 141 362q39 207 39 396q0 98 -45 168q-53 80 -148 79q-66 0 -136 -45t-97 -110 q-20 -51 -21 -144q0 -293 173 -340q49 -12 143 -36l-62 -123l-155 12q-170 14 -283 164q-102 139 -102 317z" />
<glyph unicode=":" horiz-adv-x="686" d="M115 0l18 268l299 19l31 -74l-29 -193zM147 575l17 289l299 10l31 -47l-27 -225z" />
<glyph unicode=";" horiz-adv-x="702" d="M123 -195q43 172 59 422q0 14 13 80q10 53 6 76l276 27l10 -86l-190 -435zM205 571l18 271l273 28l39 -157l-25 -115z" />
<glyph unicode="&#x3c;" horiz-adv-x="1382" d="M63 518l64 115q213 106 551 270q164 76 559 205l-2 -203q-127 -57 -334 -149q-111 -47 -436 -156q268 -53 436 -111q168 -63 338 -124l-4 -185q-565 143 -1172 338z" />
<glyph unicode="=" horiz-adv-x="1120" d="M96 387l33 182q80 23 262 54q166 10 588 6l-35 -187q-274 -4 -848 -55zM139 905q86 14 281 35q188 8 575 23l-20 -197q-41 -8 -90 -14q-158 -14 -363 -19q-178 -4 -356 -6z" />
<glyph unicode="&#x3e;" horiz-adv-x="1447" d="M125 178l51 182q305 117 356 138q154 68 410 211q-281 51 -436 102q-180 70 -363 139l4 162q360 -78 574 -139q141 -41 551 -178l92 -115q-240 -113 -479 -227q-265 -123 -445 -195q-119 -45 -166 -51q-18 0 -149 -29z" />
<glyph unicode="?" horiz-adv-x="1308" d="M182 1411q242 119 418 119q154 0 287 -45q176 -57 215 -172q35 -106 35 -219q0 -98 -60 -176q-37 -47 -135 -123t-138.5 -123t-103.5 -252l-284 -27q6 209 76 303q49 66 247 191q74 96 74 225q0 98 -63.5 166t-159.5 68q-115 0 -340 -91zM389 -18v251l295 33l41 -84 l-29 -178z" />
<glyph unicode="@" horiz-adv-x="1665" d="M109 752q-4 217 79.5 379.5t249.5 238.5q160 74 389 74q248 0 451 -94q94 -43 145 -176q43 -117 43 -269q0 -145 -39.5 -248.5t-152.5 -187.5q-121 -88 -234 -88q-90 0 -151 63q-61 -45 -150 -45q-23 0 -67 7q-90 10 -140 114q-39 88 -38 215q0 342 305 355q57 2 301 -46 q-20 -94 -49 -505q133 33 180 125q41 78 51 284q-8 330 -457 330q-49 0 -114 -4q-172 -10 -283 -166q-106 -147 -104 -340q6 -293 188 -451q168 -145 455 -145q39 0 77 2q72 4 406 80l-33 -211q-193 -55 -471 -55q-160 0 -278 22q-72 14 -181 72q-117 63 -157 119 q-100 137 -137 211q-80 160 -84 340zM649 723q0 -168 78 -176q55 -6 150 51l36 317q-66 31 -143 29q-57 0 -92 -72q-29 -63 -29 -149z" />
<glyph unicode="A" horiz-adv-x="1423" d="M35 -2q88 563 147 811q106 451 277 774l540 35q84 -293 170 -586q90 -338 113 -596l39 -434l-301 29l-31 467l-432 -56l-178 45l-107 -464zM418 631l522 47q16 2 16 76q0 78 -66.5 326t-105.5 309l-200 -19q-90 -270 -127 -465q-4 -41 -15 -121z" />
<glyph unicode="B" horiz-adv-x="1421" d="M141 145q0 190 13.5 572.5t13.5 574.5q0 176 -10 301q145 6 241 6q293 0 488 -32q141 -23 237 -314q41 -121 41 -182q0 -88 -215 -209q133 -31 178 -45q127 -41 150 -84q14 -31 14 -86q0 -53 -16 -188q-10 -84 -78 -211q-74 -135 -139 -168q-172 -88 -414 -88 q-111 0 -500 37q-4 63 -4 116zM420 920q0 -43 3 -133.5t3 -135.5q0 -213 12 -440q78 -25 260 -25q135 0 168 19q61 35 109 170q41 117 41 203q0 61 -21 86q-35 37 -323 37q-35 0 -74 -1l12 140l133 37q160 115 160 178q0 78 -121 350l-344 -19q0 -74 -10 -233 q-8 -151 -8 -233z" />
<glyph unicode="C" horiz-adv-x="1196" d="M53 963q0 61 41 215q39 147 68 202q18 37 105 100.5t130 78.5q89 28 272 28h13q313 0 483 -49l-63 -158q-154 27 -279 27q-174 0 -270 -47q-63 -33 -113 -90q-51 -63 -57 -129q-8 -98 -8 -211q0 -406 67 -615q25 -74 133 -114q86 -31 183 -31q68 0 172 14q154 23 174 25 l-45 -172l-383 -55q-6 -1 -14 -1q-55 0 -201 35q-178 41 -207 74q-88 104 -150 422q-51 262 -51 451z" />
<glyph unicode="D" horiz-adv-x="1466" d="M131 1571l578 33h10q64 0 239 -45q201 -51 232 -84q16 -18 63 -101q70 -119 70 -268q0 -291 -47 -528q-66 -338 -211 -465q-63 -55 -207 -86q-118 -27 -227 -27q-115 0 -451 8q-12 309 -33 926q-2 213 -16 637zM457 162q53 -4 104 -4q164 0 352 106q45 127 84 383 q35 242 35 396q0 70 -28 221l-218 125h-309q-20 -436 -20 -754v-473z" />
<glyph unicode="E" horiz-adv-x="1212" d="M172 1024q0 475 43 518q41 41 662 41h59l176 -2l-39 -172q-217 -8 -282 -12q-219 -18 -250 -51q-45 -51 -52 -453l39 -49l500 -27l-18 -137l-531 -37v-43v-31q0 -309 39 -354q30 -35 462 -35h93l-29 -153q-461 -39 -690 -39q-127 0 -139 16q-43 53 -43 1020z" />
<glyph unicode="F" horiz-adv-x="1155" d="M137 1468l49 82l895 27l-65 -176l-477 -45l-70 -53q-2 -51 -10 -183q-8 -117 -8 -184q0 -43 2 -82l577 -2l-29 -147l-546 -52l-21 -633l-250 -30q-4 250 -26 745q-6 115 -15 340z" />
<glyph unicode="G" horiz-adv-x="1368" d="M106 1081q0 377 80 449q37 35 336 55q207 12 363 12q115 0 329 -41l-45 -151q-242 23 -241 22q-82 0 -236 -26q-180 -33 -211.5 -67t-58.5 -160q-20 -109 -21 -183q0 -227 56 -768q254 -65 387 -65h4q41 0 57 6q47 20 72 158q16 94 16 194v-2q-2 0 -20 168l-146 12 l31 115q203 0 320 -10q102 -11 102 -23q0 -70 -33 -289q-49 -338 -84 -399q-29 -51 -168 -84q-105 -24 -186 -24h-6q-117 0 -299 20q-223 27 -277 61q-59 178 -92 502q-29 270 -29 518z" />
<glyph unicode="H" horiz-adv-x="1591" d="M143 1499q0 33 2 64l326 10q-8 -217 -8 -430q0 -219 12 -361l572 21l49 788l303 43l-68 -929q-19 -216 -37 -644l-204 -79l-37 53l-4 600l-588 -76l-21 -543l-268 -20q0 985 -8 1178q-2 37 -12 163q-8 100 -9 162z" />
<glyph unicode="I" horiz-adv-x="718" d="M137 1561l389 32q-27 -395 -53 -790q-29 -461 -31 -789l-233 -16l-59 1182q-2 119 -13 381z" />
<glyph unicode="J" horiz-adv-x="993" d="M39 102q96 12 194 27q133 18 185 37q68 27 133 145q2 102 12 342q10 221 10 344q0 166 -14 340l-473 17l-27 162l865 79q-12 -229 -66 -653q-58 -448 -72 -653q-49 -102 -69 -137q-53 -94 -94 -113q-145 -68 -410 -68q-74 0 -162 9z" />
<glyph unicode="K" horiz-adv-x="1476" d="M125 1563l360 16l-22 -721l354 82q100 264 207 471q25 45 61 139l277 25q-72 -254 -133 -340q-176 -258 -268 -404l235 -194q68 -199 193 -596l-177 -98q-106 258 -202 415q-106 174 -285 365l-264 -6q2 -20 2 -80q0 -385 -21 -625l-262 -10q-18 389 -35 780 q-18 455 -20 781z" />
<glyph unicode="L" horiz-adv-x="1024" d="M141 1571l391 33q-37 -231 -47 -373q-23 -299 -65 -989l579 -37l-26 -166l-823 -59q0 18 10 389q2 100 2 211q0 186 -8 497q-10 371 -13 494z" />
<glyph unicode="M" horiz-adv-x="2019" d="M82 -12l82 784q33 254 92 760l391 67q160 -385 184 -448q100 -256 154 -463q53 197 178 455q178 369 209 440l342 -37q10 -201 78 -727q57 -442 57 -709v-18v-61l-290 -51v43q0 253 -21 587q-25 455 -68 594l-73 -12l-168 -410q-102 -246 -150 -417l-209 -62 q-82 272 -153 434q-133 309 -185 473l-73 -47v-4q0 -33 -19 -248q-16 -186 -45 -557q-13 -184 -13 -277q0 -31 1 -52z" />
<glyph unicode="N" horiz-adv-x="1632" d="M162 1241l33 293l417 45q213 -365 299 -532q156 -301 234 -562l-15 963l23 141l311 6q-66 -512 -92 -768q-43 -430 -55 -774l-227 -55q-246 766 -549 1221l-90 -43q-39 -473 -48 -1168l-221 -22q0 180 -10 626q-10 414 -10 629z" />
<glyph unicode="O" horiz-adv-x="1505" d="M76 1137q0 39 2 45q74 305 301 381q168 57 369 57q121 0 243 -25q154 -29 230 -82q100 -74 137 -202q26 -87 26 -237v-11q0 -129 -14 -309q-8 -121 -102 -348q-102 -246 -183 -304q-27 -18 -163.5 -62t-169.5 -44q-84 0 -187 10q-137 14 -168 39q-150 117 -219 295 q-49 123 -84 360q-2 4 -8 123q-10 221 -10 314zM375 723q0 -293 141 -447q39 -43 244 -43q123 0 174 23q41 18 94 254q39 172 53 285q16 123 17 225q0 276 -109 328q-27 12 -186 28q-150 15 -203 15q-47 0 -127 -79t-84 -128q-14 -201 -14 -461z" />
<glyph unicode="P" horiz-adv-x="1280" d="M119 -12q24 487 24 861v30q0 121 -8 348q-8 238 -8 348q137 6 289 6q164 0 344 -8h22q47 0 119 -6q51 -12 152 -94q37 -72 100 -281q68 -219 68 -281l-93 -196q-410 -197 -571 -219l-41 153q203 76 418 223v19q0 113 -121 481l-86 37l-283 -10q-24 -254 -24 -547v-23 q0 -186 24 -804z" />
<glyph unicode="Q" horiz-adv-x="1556" d="M131 1151q0 80 3 94.5t30 77.5q82 207 262 262q141 45 301 45q129 0 262 -33q158 -37 240 -104q153 -122 153 -449q0 -133 -14 -315q-10 -102 -82 -283q-63 -162 -129 -266l324 -92l-54 -149q-432 63 -534 63q-20 0 -63.5 -9t-63.5 -9q-78 0 -197 14q-147 16 -176 41 q-143 121 -192 285q-70 240 -70 827zM418 958q0 -276 8 -358q23 -227 111 -332q25 -29 139 -51q90 -14 153 -14q76 0 115 18q31 16 98 275q55 213 72 305q20 135 21 237q0 244 -119 293t-336 49q-8 0 -66 -10q-150 -33 -184 -153q-12 -45 -12 -259z" />
<glyph unicode="R" horiz-adv-x="1368" d="M119 2q28 366 28 746v26l-10 797l391 22l2 2h2q88 0 441 -39l145 -126q72 -438 72 -506v-13q-66 -78 -133 -155q-90 -98 -154 -115q115 -207 481 -670l-190 -55q-63 59 -350 373q-297 324 -309 350l-33 92q92 25 139 39q104 33 123 51l137 137l-49 445l-438 -25 q-8 -311 -8 -547q0 -451 26 -794z" />
<glyph unicode="S" horiz-adv-x="1216" d="M111 229q147 -45 305 -45q84 0 188 23q129 25 172 65q18 18 19 76q0 98 -27 240q-27 27 -123 69q-135 59 -272 119q-207 96 -232 142q-30 53 -30 330v18q0 51 26 157q31 119 62 144q43 37 247 37q238 0 590 -37l-43 -158q-195 8 -276 8q-207 0 -287 -43l-41 -293 q29 -37 197 -106q264 -109 305 -129q168 -82 199 -150q16 -35 16 -96q0 -193 -90 -444l2 -2h-2l-2 -2q-23 -35 -70 -105q-184 -53 -455 -53q-190 0 -362 22z" />
<glyph unicode="T" horiz-adv-x="1140" d="M-45 1372l27 174q575 20 1105 47l25 -202l-373 -54l-45 -65q-27 -836 -49 -1254l-235 -47q6 86 6 189q0 129 -9.5 388t-9.5 389t-26 353l-68 41z" />
<glyph unicode="U" horiz-adv-x="1533" d="M102 1462q0 45 2 88l314 25q-8 -152 -8 -537q0 -364 -2 -364v8q4 -248 30 -348q23 -82 81.5 -115t178.5 -33q176 0 207 58q74 139 103 350q16 121 22 367q2 78 21 303q12 166 12 274v29l346 22l-129 -1183q0 -4 -25 -60q-131 -285 -258 -328q-67 -24 -303 -24 q-268 0 -350 45q-63 33 -139 250q-70 199 -70 291l2 73q0 139 -16 404q-18 276 -19 405z" />
<glyph unicode="V" horiz-adv-x="1267" d="M10 1540l279 37q41 -78 102 -244l2 2l-2 -2q2 -6 12 -119q33 -358 48 -462q35 -279 90 -453l125 70q55 248 168 745q20 88 38 176q27 111 54 170q10 27 41.5 67t42.5 62l276 25q-127 -395 -256 -791q-154 -473 -233 -794l-428 -52q-117 406 -359 1563z" />
<glyph unicode="W" horiz-adv-x="1892" d="M61 1538l236 55l96 -88q10 -438 51 -1241l68 45l285 1049l286 26q70 -188 129 -540q41 -281 84 -561l86 100l119 1020l98 129l281 31q-6 -18 -145 -514q-2 -8 -68 -342q-45 -227 -127 -680l-348 -37q-90 166 -168 491q-57 260 -115 518l-47 -57q-111 -563 -229 -926 l-379 -16q-160 1001 -193 1538z" />
<glyph unicode="X" horiz-adv-x="1380" d="M16 1499l281 80q231 -436 385 -639q59 98 184 295q45 66 117 192l64 158l278 -76q-74 -215 -225 -411q-143 -180 -287 -363l465 -653l-283 -111l-338 551q-70 -76 -141 -151q-84 -92 -123 -164q-23 -43 -100 -215l-268 45q63 145 139 274q33 53 153 197q47 55 191 272 q-66 96 -186.5 229.5t-169.5 204.5q-84 125 -136 285z" />
<glyph unicode="Y" horiz-adv-x="1308" d="M0 1522l246 55q18 -51 61 -285q39 -217 90 -315q45 -80 205 -256l90 20q145 166 180 301q43 172 93 555l313 -59q-78 -244 -125 -377q-94 -268 -145 -346q-76 -119 -101 -151q-59 -85 -116 -138q-20 -121 -25 -508l-279 -43q-2 334 -22 541q-37 25 -172 183.5t-139 187.5 q-51 88 -104 307q-50 211 -50 320v8z" />
<glyph unicode="Z" horiz-adv-x="1191" d="M10 170q45 104 148 311q51 92 139 226q141 217 143 221l258 405q-41 4 -114 10q-156 13 -478 33l31 156l916 43l-19 -275q-201 -256 -362 -514q-211 -340 -266 -555l727 -41l-33 -180l-1045 8z" />
<glyph unicode="[" horiz-adv-x="958" d="M168 -115q-4 418 45 1866l623 12l18 -116l-399 20q-35 -373 -76 -1087q-2 -109 12 -283q23 -303 25 -328l375 23v-109z" />
<glyph unicode="\" horiz-adv-x="954" d="M-117 1610l275 26q150 -438 331 -796q174 -340 478 -799l-252 -102z" />
<glyph unicode="]" horiz-adv-x="962" d="M49 -154l31 109l381 22q20 250 45 721q0 23 -8 981l-363 -22l55 90l558 16q14 -70 28 -209q2 -94 2 -196q0 -305 -26 -725q-25 -355 -50 -709z" />
<glyph unicode="^" horiz-adv-x="1347" d="M236 1479l24 151q35 27 117 86q98 66 274 178q142 -76 398 -252l-35 -143q-61 35 -381 174z" />
<glyph unicode="_" horiz-adv-x="1034" d="M-2 -254l2 150h1034l-2 -150h-1034z" />
<glyph unicode="`" horiz-adv-x="661" d="M70 1649l286 55q61 -53 215 -270l-174 -43q-45 31 -159 135q-90 80 -168 123z" />
<glyph unicode="a" horiz-adv-x="1294" d="M29 -4q78 508 133 739q96 410 252 705l491 30q160 -553 221 -868q14 -68 35 -201l37 -401l-285 29l-28 415l-377 -47l-152 39l-94 -413zM395 586l449 41q6 -1 6 73q0 59 -59.5 277.5t-90.5 267.5l-161 -14q-80 -240 -111 -412q-4 -35 -12 -106q-8 -43 -21 -127z" />
<glyph unicode="b" horiz-adv-x="1292" d="M129 141q0 256 23 867q2 35 2 440q129 6 215 6q250 0 436 -29q90 -14 160 -143q6 -8 12 -22q84 -182 84 -287q0 -45 -66 -107q-51 -47 -108 -80q104 -25 149 -38q102 -35 125 -76q14 -27 15 -84q0 -29 -15 -168q-8 -76 -74 -193q-68 -127 -126 -155q-162 -80 -373 -80 q-104 0 -455 35q-4 59 -4 114zM395 834v1q1 0 8 -100q0 4 -1 4t-1 -145q0 -190 11 -387q63 -20 221 -21q123 0 147 15q55 35 94 151q35 102 35 180q0 47 -16 66q-31 32 -256 32q-46 0 -100 -1l12 141l123 33q137 98 137 153q0 68 -104 304l-293 -17q0 -29 -11 -313 q-6 -16 -6 -96z" />
<glyph unicode="c" horiz-adv-x="1077" d="M49 874q0 59 35 190.5t61 188.5q16 33 96.5 91.5t118.5 70.5q84 27 261 27q301 0 440 -47l-62 -164q-136 24 -247 24h-9q-152 0 -235 -41q-137 -68 -148 -182q-6 -88 -6 -188q0 -362 60 -549q23 -66 114 -105q72 -30 151 -30h5q63 0 162 14q133 18 162 23l-45 -164 q-348 -49 -349 -49q-68 0 -202 30q-152 37 -183 70q-80 92 -135 381q-45 240 -45 409z" />
<glyph unicode="d" horiz-adv-x="1333" d="M119 1427l524 31h5q58 0 228 -43q178 -45 205 -78q10 -14 29 -41q92 -139 92 -288q0 -694 -233 -906q-55 -49 -187 -77q-109 -25 -207 -25q-109 0 -411 8q-12 279 -31 838q-2 195 -14 581zM428 580l2 -416q41 -4 84 -4q111 0 307 94q84 233 101 743q-7 50 -23 140 l-186 108l-267 2q-18 -410 -18 -667z" />
<glyph unicode="e" horiz-adv-x="1101" d="M156 932q0 426 40 467t648 41q98 0 170 -2l-39 -176q-426 0 -475 -54q-39 -43 -43 -395l30 -39l451 -22l-20 -142l-469 -32v-56v-30q1 -252 33 -290q29 -34 356 -33q65 0 141 1l-29 -145q-389 -35 -608 -35q-133 0 -145 18q-41 53 -41 924z" />
<glyph unicode="f" horiz-adv-x="1050" d="M125 1329l47 80l817 25l-67 -187l-426 -37l-58 -43q-2 -45 -8 -157q-8 -100 -8 -160q0 -35 2 -66l516 -2l-29 -149l-485 -47l-18 -568l-242 -28q-18 446 -41 1339z" />
<glyph unicode="g" horiz-adv-x="1243" d="M96 979q0 342 76 412q35 31 301 49q184 12 330 12q109 0 305 -39l-47 -166q-221 20 -221 21q-88 0 -209 -17q-156 -20 -184.5 -50t-49.5 -142q-18 -94 -18 -160q0 -203 47 -682q223 -55 340 -55q37 0 51 6q72 31 72 303v-1q-2 0 -19 142l-133 13l33 120q375 0 399 -22 q-66 -549 -116 -639q-27 -49 -150 -80q-92 -22 -167 -22h-7q-109 0 -272 18q-205 25 -252 57q-53 162 -82 453q-27 246 -27 469z" />
<glyph unicode="h" horiz-adv-x="1447" d="M131 1356q0 35 2 65l309 11q-8 -195 -8 -402q0 -190 10 -309l494 18l45 707l289 41l-62 -846q-30 -500 -32 -584l-197 -75l-37 55l-4 530l-508 -65l-18 -486l-250 -20q0 356 -17 1067q0 31 -10 145q-6 92 -6 148z" />
<glyph unicode="i" horiz-adv-x="663" d="M135 1417l354 33q-23 -360 -45 -719q-26 -438 -26 -717l-219 -18l-52 1071q-2 113 -12 350z" />
<glyph unicode="j" horiz-adv-x="903" d="M35 109l176 24q121 16 168 35q57 23 110 123q2 92 13 307q10 197 10 307q0 145 -12 295l-422 14l-25 164l787 72q-10 -209 -58 -592q-51 -408 -63 -592q-49 -98 -64 -127q-49 -86 -90 -104q-57 -27 -178 -45q-106 -16 -186 -17q-76 0 -154 9z" />
<glyph unicode="k" horiz-adv-x="1343" d="M115 1421l340 15l-19 -645l299 69q84 223 185 420q25 47 53 129l268 23q-63 -231 -123 -320q-80 -117 -235 -354l204 -172q61 -180 177 -545l-172 -96q-96 236 -181 372q-96 158 -256 332l-223 -6q2 -14 2 -53q0 -369 -18 -578l-252 -12q-49 1169 -49 1421z" />
<glyph unicode="l" horiz-adv-x="931" d="M129 1430l369 28q-57 -350 -103 -1222l516 -35l-28 -166l-748 -55q12 127 12 550q0 168 -8 449q-8 334 -10 451z" />
<glyph unicode="m" horiz-adv-x="1802" d="M61 -6l74 708q29 229 84 691l365 57l61 -141q25 -49 72 -154q100 -233 166 -491q43 160 157 393q154 307 185 383l323 -35q8 -184 70 -655q51 -401 51 -640v-18l-2 -63l-295 -49v102q0 838 -59 997l-53 -8q-76 -184 -152 -369q-92 -219 -133 -374l-203 -58 q-27 160 -137 410q-133 301 -166 401l-51 -32q-4 -129 -39 -433q-33 -276 -33 -432q0 -82 6 -161z" />
<glyph unicode="n" horiz-adv-x="1468" d="M147 1122l29 273l389 41q207 -356 258 -449q137 -262 203 -477l-12 799l20 135l297 8q-117 -926 -133 -1401l-217 -55q-221 692 -489 1096l-68 -33q-35 -438 -43 -1051l-215 -22q0 166 -10 567q-8 375 -9 569z" />
<glyph unicode="o" horiz-adv-x="1370" d="M68 1030q0 37 2 41q55 229 219 322q137 80 389 80q291 0 426 -99q92 -66 125 -184q24 -79 24 -216v-11q0 -115 -12 -279q-8 -109 -92 -315q-92 -221 -166 -275q-25 -18 -147.5 -58t-153.5 -40q-264 0 -324 47q-190 147 -254 453q-36 177 -36 516v18zM352 657 q0 -260 125 -393q33 -35 211 -35q104 0 150 19q35 14 82 225q33 154 45 254q14 109 14 199q0 242 -92 284q-23 12 -164 27q-129 12 -176 12q-39 0 -107.5 -67.5t-72.5 -110.5q-14 -156 -15 -414z" />
<glyph unicode="p" horiz-adv-x="1163" d="M109 -12q22 444 22 780v29q0 109 -8 320.5t-8 314.5q127 6 266 6q385 0 435 -12.5t142 -90.5q33 -63 93 -254q59 -203 59 -258l-86 -180q-365 -176 -514 -199l-47 154q33 12 98 41q135 63 275 160q2 6 2 14q0 96 -109 420l-72 31l-239 -9q-20 -225 -21 -503 q1 -213 21 -729z" />
<glyph unicode="q" horiz-adv-x="1415" d="M121 1042q0 74 2 84q4 18 31 84q74 180 237 232q127 39 273 39q117 0 237 -29q141 -35 217 -96q141 -113 142 -414q0 -229 -41 -395q-45 -190 -156 -371l287 -82l-56 -151q-387 59 -481 59q-20 0 -58 -9t-57 -9q-74 0 -180 14q-133 14 -162 39q-129 109 -176 274 q-16 55 -51 324q0 4 -4 135q-4 178 -4 272zM393 870q0 -246 8 -321q20 -203 97 -293q20 -25 123 -43q80 -14 133 -14q66 0 98 16q27 14 84 244q49 190 61 270q20 119 21 211q0 217 -100 256q-109 43 -297 43q-10 0 -62 -10q-139 -31 -158 -146q-8 -51 -8 -213z" />
<glyph unicode="r" horiz-adv-x="1245" d="M109 0q26 324 26 679v26l-10 722l367 23q24 2 51 2q64 0 145 -10q100 -12 199 -27l135 -119q20 -119 43 -235q21 -121 21 -195q0 -19 -1 -35v-10q-59 -68 -118 -137q-82 -92 -133 -106q102 -180 434 -601l-193 -55q-55 53 -315 338q-268 293 -279 318l-32 94 q166 45 198 61q61 31 160 139l-43 385l-373 -22q-6 -272 -6 -479q0 -410 25 -723z" />
<glyph unicode="s" horiz-adv-x="1105" d="M100 227q125 -43 281 -43q78 0 166 19q106 23 151 59q14 12 15 64q0 80 -27 206q-37 35 -289 142q-236 98 -266.5 151.5t-30.5 300.5q0 127 9 158q12 43 79 131q31 41 246 41q221 0 512 -33l-43 -159h-12q-39 0 -120 4t-122 4q-183 0 -246 -35l-34 -254q16 -25 303 -145 q279 -117 317 -201q16 -29 17 -86q0 -55 -29 -207q-31 -164 -52.5 -197.5t-66.5 -101.5q-166 -51 -412 -51q-184 0 -329 22z" />
<glyph unicode="t" horiz-adv-x="1036" d="M-43 1231l27 174q500 18 1005 43l23 -180l-338 -66l-37 -53q-12 -377 -43 -1131l-229 -47q6 84 6 183q0 115 -8.5 348t-8.5 349t-24 310l-56 33z" />
<glyph unicode="u" horiz-adv-x="1394" d="M94 1321v88l301 23q-8 -127 -8 -492q0 -467 14.5 -576.5t81.5 -144.5q47 -26 160 -26h8q139 0 162 38q98 178 111 641q2 68 18 277q10 147 10 245v31l330 21l-117 -1075q0 -4 -24 -58q-119 -256 -236 -297q-61 -22 -272 -22q-244 0 -318 41q-61 33 -129 227 q-63 174 -63 260v8v66v29q0 122 -14 333q-14 248 -15 363z" />
<glyph unicode="v" horiz-adv-x="1150" d="M6 1401l268 35q35 -74 95 -228q6 -84 18 -217q29 -281 39 -354q27 -203 72 -346l98 55q51 229 154 686q20 104 77 291q29 39 80 121l264 24q-115 -358 -231 -718q-139 -430 -211 -723l-397 -50q-104 365 -326 1424z" />
<glyph unicode="w" horiz-adv-x="1720" d="M55 1397l226 53l90 -86q12 -395 47 -1100l43 29l258 944l270 25q68 -176 117 -480q35 -248 70 -493l67 61l115 975l96 109l238 18q-23 -123 -68 -305q-37 -152 -74 -305q-2 -8 -53 -281q-33 -178 -96 -536l-326 -35q-84 154 -153 438q-49 229 -99 459l-28 -37 q-100 -508 -211 -836l-353 -14q-147 913 -176 1397z" />
<glyph unicode="x" horiz-adv-x="1255" d="M12 1362l269 76q111 -211 157 -293q92 -162 180 -281q70 104 142 209q80 127 121 221l59 148l264 -80q-66 -193 -200 -369q-127 -161 -254 -323l417 -590l-272 -109l-299 492q-59 -66 -121 -131q-74 -80 -104 -142q-20 -39 -95 -198l-258 43q55 133 129 258 q49 82 150 211q115 147 156 209q-59 88 -167 204.5t-153 182.5q-76 113 -121 262z" />
<glyph unicode="y" horiz-adv-x="1189" d="M0 1370v12l236 52q27 -70 57 -271q27 -176 72 -259t186 -238q25 6 74 18q41 14 92 119q6 10 63 145q33 78 84 512l301 -63q-109 -342 -161 -479q-135 -342 -250 -410q-51 -295 -52 -492l-266 -39q0 291 -20 490q-29 18 -152 165.5t-127 170.5q-47 80 -94 275 q-43 181 -43 276v16z" />
<glyph unicode="z" horiz-adv-x="1083" d="M8 162l133 284q35 55 103 160l377 596l-527 21l31 163l833 46l-18 -261q-174 -221 -319 -454q-190 -303 -238 -490l649 -45l-33 -174l-948 8z" />
<glyph unicode="{" horiz-adv-x="1091" d="M68 741l2 45q94 18 239 86q39 98 43 261q8 213 17 264q23 141 92 192q106 76 231 92q125 9 248 15l-2 -51q-63 -8 -127 -15q-82 -10 -115 -47q-80 -90 -80 -192q0 -29 4.5 -86.5t4.5 -85.5q0 -174 -78 -310q-35 -59 -221 -133q180 -43 196 -74q66 -123 66 -296 q0 -37 -2 -110t-2 -110q0 -25 31.5 -76t54.5 -65q109 -70 229 -65v-52q-90 -4 -108 -4q-305 0 -353 76q-94 160 -94 317q0 23 2 84v101q0 147 -70 196q-51 35 -208 43z" />
<glyph unicode="|" horiz-adv-x="946" d="M334 -471l10 2124l272 16l-28 -2124z" />
<glyph unicode="}" horiz-adv-x="1042" d="M88 -74q213 2 283 142q39 76 53 307q14 221 76 315q35 53 194 105q-180 86 -205 131q-68 121 -67 243q0 39 5 115t5 113q0 20 -65 157q-137 39 -238 35v53q109 6 188 7q225 0 301 -90q57 -68 58 -252v-93q-2 -63 -2 -100q0 -150 61 -225q131 -47 226 -51l-3 -45 q-94 -20 -237 -95q-27 -74 -39 -344q-2 -41 -12 -116q-37 -111 -47 -138q-35 -90 -68 -120q-78 -68 -223 -91q-20 -2 -244 -14v51z" />
<glyph unicode="~" horiz-adv-x="1259" d="M195 1343q158 223 260 248q96 -6 217 -51q115 -43 119 -43q51 0 213 78q8 4 29.5 -19.5t29.5 -25.5l-84 -100q-82 -82 -88 -87q-59 -49 -111 -49q-33 0 -151.5 59.5t-169.5 59.5q-39 0 -105 -55q-49 -43 -96 -86z" />
<glyph unicode="&#xa0;" />
<glyph unicode="&#xa1;" horiz-adv-x="774" d="M190 1032l29 103l328 47l-21 -262l-293 -37zM193 -375q20 72 22 115q2 121 14.5 299t14.5 299q0 102 10 297l248 61q14 -154 14 -323q0 -74 -3 -210t-3 -208q0 -146 10 -277z" />
<glyph unicode="&#xa2;" horiz-adv-x="1253" d="M209 782q2 254 260 424q68 45 152 80l6 184l239 41l-28 -208q94 -8 182 -29l-4 -152q-78 31 -234 8q-100 -14 -194 -83q-127 -96 -135 -242q-6 -129 127 -273q121 -129 200 -135q96 -4 238 43l-4 -153q-23 -8 -82 -19q-74 -10 -121 -24l2 -185l-203 -45l6 209 q-160 80 -276 230q-131 168 -131 329z" />
<glyph unicode="&#xa3;" horiz-adv-x="1036" d="M-35 639q-4 109 21 143h137q0 66 2 179q8 231 133 346q143 131 420 131q166 0 313 -49q0 -109 -4 -172q-268 51 -317 49q-268 -6 -289 -273q-4 -49 -2 -202q63 2 498 10q-8 -49 -15 -129q-104 -10 -483 -33q-8 -238 -8 -254q-10 -117 -43 -215l288 12q156 4 365 2 q-4 -41 -8 -149q-205 -12 -606 -33q-158 -6 -371 0q109 279 129 629q-129 -8 -137 -6q-8 0 -23 14z" />
<glyph unicode="&#xa4;" horiz-adv-x="2068" d="M276 344q207 131 207 145q0 6 -32.5 32t-51.5 67q-29 61 -28 160q2 186 159 325l-165 168l225 121l90 -195q147 68 319 68q78 0 129 -18q10 -2 113 -52l168 185l227 -56l-258 -219q160 -139 158 -327q-2 -133 -115 -259l166 -114l-147 -180l-219 151 q-53 -29 -107.5 -57.5t-124.5 -28.5q-215 1 -385 105l-176 -177zM606 756q-2 -109 107.5 -188t267.5 -79q147 0 227 80q70 70 72 187q0 119 -70 188q-76 78 -225 78q-156 0 -267.5 -78t-111.5 -188z" />
<glyph unicode="&#xa5;" horiz-adv-x="1167" d="M-31 1384q88 6 267 25l335 -612q113 182 371 622q123 4 225 15q-113 -203 -344 -600q49 2 181 -7q-4 -20 -9.5 -61t-7.5 -61q-88 -10 -256 -23q-16 -27 -45 -80l-8 -88q94 4 317 -2q-6 -41 -14 -123q-104 -10 -301 -24q-2 -25 -3 -76t-1 -78q0 -16 5 -55t5 -60 q0 -39 -16 -55q-18 0 -111.5 -18.5t-130.5 -18.5q-29 0 -39 10q4 59 19 342q-92 -4 -310 9q6 43 15 114q102 12 299 27l-2 72q-18 41 -50 92q-74 -2 -256 8q6 39 15 117q117 20 160 20q-88 150 -179 299q-143 248 -131 270z" />
<glyph unicode="&#xa7;" horiz-adv-x="1300" d="M123 721q2 145 55 225q37 51 127 105q66 37 127 57q-174 55 -174 248q0 27 4 57q14 106 139 162q111 49 267 41q264 -14 411 -141l-71 -109q-219 94 -359 96q-100 -27 -107 -34t-38 -105q63 -90 188 -133q113 -37 228 -74q188 -86 188 -315q0 -33 -4 -66q-8 -78 -62 -170 q-72 -119 -178 -168q109 -45 148 -84q51 -51 51 -137q2 -139 -178 -229q-158 -80 -350 -80q-104 0 -170 27q-33 14 -183 118l117 123q158 -102 260 -102q18 0 33 4q182 43 182 149q0 125 -338 152q-123 39 -221 166q-94 121 -92 217zM393 748q0 -41 6 -91q10 -68 83 -115.5 t159 -47.5q195 0 207 223q12 238 -154 237q-24 0 -51 -4q-4 -2 -86 -4q-53 -2 -86 -18q-78 -41 -78 -180z" />
<glyph unicode="&#xa8;" horiz-adv-x="1003" d="M111 1620l12 184l115 33l208 -6l-14 -164l-153 -53zM551 1692l27 145l290 18l11 -141l-56 -84l-213 -20z" />
<glyph unicode="&#xa9;" horiz-adv-x="1439" d="M43 719q0 279 184.5 478.5t454.5 209.5q274 10 458.5 -175t186.5 -468q2 -195 -98 -365q-78 -135 -217 -221q-150 -92 -324 -98q-260 -10 -448 170q-195 184 -197 469zM100 719q0 -254 173 -427t421 -165q233 10 402 184q176 182 176 453q0 256 -169 430t-417 166 q-244 -10 -416 -194.5t-170 -446.5zM268 731q-2 182 118 317.5t306 143.5q205 6 348 -160l-106 -110q-119 129 -236 125q-113 -4 -190 -89q-84 -88 -82 -223q2 -133 88 -215q78 -74 184 -69q127 4 238 135l111 -97q-143 -176 -349 -184q-186 -8 -307 114t-123 312z" />
<glyph unicode="&#xaa;" />
<glyph unicode="&#xab;" horiz-adv-x="1443" d="M66 565q47 72 65 97q63 88 666 323l-29 -172l-455 -225q129 -39 256 -123q96 -61 191 -123l-12 -160q-141 47 -361 131q-41 18 -129 101q-109 96 -192 151zM571 594q129 74 172 102q53 49 172 133q80 45 416 193l-4 -172q-219 -72 -446 -225l430 -219l20 -183 q-286 76 -395 123q-33 14 -137 96q-115 92 -228 152z" />
<glyph unicode="&#xac;" />
<glyph unicode="&#xad;" horiz-adv-x="942" d="M90 522l39 223q76 12 242 29q16 2 477 10l-80 -233q-113 -25 -334 -29h-344z" />
<glyph unicode="&#xae;" horiz-adv-x="1439" d="M43 717q-2 283 184.5 481.5t452.5 208.5q279 10 463 -180.5t184 -462.5q0 -274 -183.5 -474t-455.5 -210q-260 -10 -450.5 172t-194.5 465zM100 719q0 -258 175.5 -429t414.5 -163q244 10 412 192.5t168 442.5q0 258 -171 432t-415 166q-246 -10 -416 -195.5t-168 -445.5 zM403 317l9 840l266 10q139 4 192 -12q133 -45 134 -192q-2 -119 -152 -203q84 -74 96 -174q20 -147 62 -246l-179 -6q-25 41 -31.5 88t-11.5 92q-12 76 -20 104q-20 59 -63 76q-20 6 -56 6q14 0 -82 -4l-4 -372zM571 823l109 2q160 6 160 121q1 67 -52 94q-29 10 -133 7 l-82 -5z" />
<glyph unicode="&#xb0;" horiz-adv-x="856" d="M72 1270q-6 143 93 228t281 85q170 0 261 -110q71 -90 65 -207q-6 -113 -86 -187q-92 -86 -268 -92q-338 -12 -346 283zM266 1255q-2 -119 133 -118q23 0 52 4q88 14 106 49q8 10 8 76q0 74 -14 102q-29 57 -123 57q-162 0 -162 -170z" />
<glyph unicode="&#xb1;" />
<glyph unicode="&#xb4;" horiz-adv-x="710" d="M49 1364q66 82 176 209q16 18 119 121l258 -23q-18 -14 -60.5 -70.5t-62.5 -70.5q-82 -61 -264 -156z" />
<glyph unicode="&#xb5;" />
<glyph unicode="&#xb6;" />
<glyph unicode="&#xba;" />
<glyph unicode="&#xbb;" horiz-adv-x="1472" d="M121 190l4 187q90 68 178 137q127 88 268 135q-231 84 -448 166l4 176q440 -115 745 -319q-100 -72 -217 -183q-98 -94 -137 -114q-84 -47 -397 -185zM668 897l20 131q567 -180 627 -240q20 -23 78 -90q-90 -66 -203 -172q-98 -93 -137 -116q-84 -47 -373 -181l25 154 q55 33 183 140.5t220 164.5q-207 113 -440 209z" />
<glyph unicode="&#xbd;" horiz-adv-x="1775" d="M33 1501l30 105l373 47q-19 -179 -39 -527l-14 -534l-195 -27l-12 895zM127 25q186 303 373 606q193 317 336 637q139 307 256 475l204 -29q-415 -944 -923 -1769zM956 8q0 47 5 82q4 86 22 96q143 98 283 267q168 201 168 333q0 49 -17 103q-18 70 -53 80q-6 2 -33 2 q-109 0 -260 -53l-51 100q39 35 154 61q102 25 169 25q45 0 175 -17q141 -80 141 -233q0 -168 -53 -260q-59 -104 -160 -219q-92 -101 -184 -201q170 -12 397 -27l-8 -127q-29 -2 -312 -2q-18 0 -383 -10z" />
<glyph unicode="&#xbf;" horiz-adv-x="1341" d="M178 2q0 151 53 225q51 68 158 154q119 96 139 121q35 39 105 254l282 24q-4 -207 -71 -299q-49 -68 -252 -194q-106 -113 -107 -240q0 -25 4 -49q16 -92 142 -160q33 -10 76 -10q113 0 340 90l65 -156q-240 -119 -418 -118q-55 0 -121 8q-328 45 -378 209 q-16 51 -17 141zM608 993l27 176l307 25l2 -252l-297 -33z" />
<glyph unicode="&#xc0;" horiz-adv-x="1390" d="M35 -2q88 563 147 811q106 451 277 774l540 35q84 -293 170 -586q90 -338 113 -596l39 -434l-301 29l-31 467l-432 -56l-178 45l-107 -464zM379 1974l313 -18q33 -70 64 -125q70 -131 108 -160l-221 -24l-203 178zM418 631l522 47q16 2 16 76q0 78 -66.5 326t-105.5 309 l-200 -19q-90 -270 -127 -465q-4 -41 -15 -121z" />
<glyph unicode="&#xc1;" horiz-adv-x="1390" d="M31 -4q88 557 147 813q106 451 277 774l542 35q174 -608 242 -954q16 -74 39 -222l39 -442l-313 33l-29 456l-418 -53l-166 43l-102 -454zM434 643l494 47q6 0 6 80q0 66 -64.5 306.5t-97.5 293.5l-178 -16q-90 -262 -123 -453q-4 -39 -14 -117q-8 -47 -23 -141z M614 1638q45 92 140 236q16 18 45 115l307 -31q-20 -14 -42.5 -64.5t-45.5 -64.5q-86 -63 -230 -178z" />
<glyph unicode="&#xc2;" horiz-adv-x="1441" d="M31 -4q88 557 147 813q106 451 277 774l542 35q174 -608 242 -954q16 -74 39 -222l39 -442l-313 33l-29 456l-418 -53l-166 43l-102 -454zM322 1577l24 152q35 27 117 86q98 66 274 178q140 -76 398 -252l-35 -144q-61 33 -381 175zM434 643l494 47q6 0 6 80 q0 66 -64.5 306.5t-97.5 293.5l-178 -16q-90 -262 -123 -453q-4 -39 -14 -117q-8 -47 -23 -141z" />
<glyph unicode="&#xc3;" horiz-adv-x="1441" d="M35 -2q88 563 147 811q106 451 277 774l540 35q84 -293 170 -586q90 -338 113 -596l39 -434l-301 29l-31 467l-432 -56l-178 45l-107 -464zM305 1681q170 250 281 281q113 -10 323 -96q41 -16 54 -17q53 0 213 82q10 4 43 -4l-54 -139q-88 -90 -96 -96q-63 -55 -117 -56 q-35 0 -166 68q-137 72 -196 72q-55 0 -184 -125q-27 -27 -41 -37zM418 631l522 47q16 2 16 76q0 78 -66.5 326t-105.5 309l-200 -19q-90 -270 -127 -465q-4 -41 -15 -121z" />
<glyph unicode="&#xc4;" horiz-adv-x="1441" d="M31 -4q88 557 147 813q106 451 277 774l542 35q174 -608 242 -954q16 -74 39 -222l39 -442l-313 33l-29 456l-418 -53l-166 43l-102 -454zM344 1681l12 185l115 32l209 -6l-14 -163l-154 -54zM434 643l494 47q6 0 6 80q0 66 -64.5 306.5t-97.5 293.5l-178 -16 q-90 -262 -123 -453q-4 -39 -14 -117q-8 -47 -23 -141zM784 1753l27 148l291 16l10 -141l-55 -82l-211 -21z" />
<glyph unicode="&#xc5;" horiz-adv-x="1441" d="M31 -4q88 557 147 813q106 451 277 774l542 35q174 -608 242 -954q16 -74 39 -222l39 -442l-313 33l-29 456l-418 -53l-166 43l-102 -454zM399 1862q8 63 104.5 107t231.5 44q147 0 215 -16q133 -35 119 -135q-10 -74 -104 -144q-104 -80 -232 -80q-184 0 -287 56 q-27 16 -40 69.5t-7 98.5zM434 643l494 47q6 0 6 80q0 66 -64.5 306.5t-97.5 293.5l-178 -16q-90 -262 -123 -453q-4 -39 -14 -117q-8 -47 -23 -141zM559 1849q0 -92 150 -94q61 0 125.5 35.5t64.5 62.5q0 35 -137 35q-201 0 -203 -39z" />
<glyph unicode="&#xc6;" horiz-adv-x="1972" d="M33 14q131 829 221 1080q84 238 90 252q47 125 113 247l514 35l55 -194q-4 121 14 139q41 39 826 45l-37 -160q-473 -25 -524 -84q-41 -45 -43 -459l36 -45l498 -18l-16 -147l-523 -43q0 -113 7 -199q10 -203 39 -234q37 -43 548 -28l-26 -144q-152 -18 -301 -34 q-182 -18 -299 -15q-37 -4 -213 6q-20 125 -45 322l-424 -41l-195 45l-80 -332zM367 494l581 32q4 31 8 86q2 76 -68 406t-97 371l-213 -17q-41 -123 -70 -225q-70 -248 -70 -354z" />
<glyph unicode="&#xc7;" horiz-adv-x="1218" d="M23 973q12 78 26 147q33 170 80 271q39 45 76 79q90 82 153 101q98 29 279 28q326 0 473 -51l-68 -176q-152 29 -272 29q-158 0 -254 -45q-61 -29 -105 -87.5t-53 -121.5q-8 -100 -8 -209q0 -377 66 -606q20 -78 121 -121q82 -35 176 -35q63 0 170 17q135 20 168 22 l-47 -172l-287 -41l-62 -92l-159 -109l-152 19l78 63l98 121q-262 41 -303 96q-72 96 -123 314q-57 240 -71 559z" />
<glyph unicode="&#xc8;" horiz-adv-x="1196" d="M172 1024q0 469 44 514t712 45q109 0 186 -2l-43 -192q-467 0 -520 -60q-45 -49 -49 -434l35 -43l495 -27l-22 -153l-516 -35v-64q-2 -307 35.5 -351t545.5 -36l-31 -157q-426 -39 -667 -39q-147 0 -162 18q-43 59 -43 1016zM319 1911l267 10q43 -72 80 -127 q88 -133 127 -162l-222 -24l-202 178z" />
<glyph unicode="&#xc9;" horiz-adv-x="1196" d="M172 1024q0 469 44 514t712 45q109 0 186 -2l-43 -192q-467 0 -520 -60q-45 -49 -49 -434l35 -43l495 -27l-22 -153l-516 -35v-64q-2 -307 35.5 -351t545.5 -36l-31 -157q-426 -39 -667 -39q-147 0 -162 18q-43 59 -43 1016zM518 1616q45 94 139 237q16 16 45 113 l308 -29q-20 -14 -42.5 -64.5t-45.5 -66.5q-86 -63 -230 -176z" />
<glyph unicode="&#xca;" horiz-adv-x="1212" d="M172 1024q0 469 44 514t712 45q109 0 186 -2l-43 -192q-467 0 -520 -60q-45 -49 -49 -434l35 -43l495 -27l-22 -153l-516 -35v-64q-2 -307 35.5 -351t545.5 -36l-31 -157q-426 -39 -667 -39q-147 0 -162 18q-43 59 -43 1016zM315 1665l303 256l119 18l269 -245l-175 -35 l-124 113l-54 -9l-116 -104z" />
<glyph unicode="&#xcb;" horiz-adv-x="1212" d="M172 1024q0 469 44 514t712 45q109 0 186 -2l-43 -192q-467 0 -520 -60q-45 -49 -49 -434l35 -43l495 -27l-22 -153l-516 -35v-64q-2 -307 35.5 -351t545.5 -36l-31 -157q-426 -39 -667 -39q-147 0 -162 18q-43 59 -43 1016zM244 1741l6 117l158 135l165 -66l27 -98 l-172 -123zM743 1819l29 141l215 47l103 -164l-62 -92l-219 -22z" />
<glyph unicode="&#xcc;" horiz-adv-x="731" d="M18 1997l312 -19q35 -72 63 -125q70 -131 109 -161l-221 -23l-203 176zM150 1559l389 36q-25 -395 -52 -790q-28 -484 -28 -789l-240 -20l-57 1178q-2 123 -12 385z" />
<glyph unicode="&#xcd;" horiz-adv-x="731" d="M150 1559l389 36q-25 -395 -52 -790q-28 -484 -28 -789l-240 -20l-57 1178q-2 123 -12 385zM213 1630q45 94 137 238q18 16 47 112l305 -28q-18 -14 -40.5 -64.5t-45.5 -66.5q-86 -63 -231 -176z" />
<glyph unicode="&#xce;" horiz-adv-x="731" d="M-66 1589l27 166q39 31 129 96q109 72 301 195q155 -84 438 -277l-38 -157q-68 37 -420 190zM150 1559l389 36q-25 -395 -52 -790q-28 -484 -28 -789l-240 -20l-57 1178q-2 123 -12 385z" />
<glyph unicode="&#xcf;" horiz-adv-x="731" d="M-47 1751l4 119l158 135l166 -68l26 -98l-172 -123zM150 1559l389 36q-25 -395 -52 -790q-28 -484 -28 -789l-240 -20l-57 1178q-2 123 -12 385zM451 1831l30 139l213 47l103 -164l-60 -90l-219 -22z" />
<glyph unicode="&#xd1;" horiz-adv-x="1579" d="M158 -12q10 109 18 630q10 506 8 623q18 162 29 291q96 4 180 10q137 6 166 12h4q123 -252 246 -503q184 -375 301 -564l53 23q-35 412 -84 874l47 205l314 29q-33 -260 -72 -787q-12 -258 -31 -774l-204 -55q-211 393 -644 1155l-43 -51q0 -410 -2 -1094zM373 1686 q158 223 260 249q96 -8 217 -53q115 -43 119 -43q45 0 186 70q2 0 53 -6l-51 -131q-82 -80 -88 -86q-59 -47 -111 -48q-33 0 -151.5 58.5t-169.5 58.5q-39 0 -105 -55q-49 -43 -96 -86z" />
<glyph unicode="&#xd2;" horiz-adv-x="1505" d="M76 1137q0 39 2 45q74 305 301 381q168 57 369 57q121 0 243 -25q154 -29 230 -82q100 -74 137 -202q27 -90 26 -248q0 -129 -14 -309q-8 -121 -102 -348q-102 -246 -183 -304q-27 -18 -163.5 -62t-169.5 -44q-84 0 -187 10q-137 14 -168 39q-150 117 -219 295 q-49 123 -84 360q-2 4 -8 123q-10 221 -10 314zM375 723q0 -293 141 -447q39 -43 244 -43q123 0 174 23q41 18 94 254q39 172 53 285q16 123 17 225q0 276 -109 328q-27 12 -186 28q-150 15 -203 15q-47 0 -127 -79t-84 -128q-14 -201 -14 -461zM437 1872l286 55 q61 -53 215 -270l-174 -43q-45 31 -159 135q-90 80 -168 123z" />
<glyph unicode="&#xd3;" horiz-adv-x="1505" d="M74 1133q0 41 2 47q61 250 241 352q150 88 428 88q319 0 467 -107q102 -74 140 -202q27 -92 26 -252q0 -127 -12 -305q-8 -121 -102 -348q-100 -244 -183 -304q-27 -18 -161.5 -62t-169.5 -44q-289 0 -357 51q-207 162 -276 498q-43 201 -43 588zM389 725 q0 -287 137 -434q35 -39 232 -39q113 0 164 20q39 16 90 248q37 170 49 279q14 121 14 221q0 264 -100 311q-25 12 -180 29q-142 14 -193 14q-45 0 -119.5 -74.5t-79.5 -121.5q-14 -172 -14 -453zM588 1657q45 94 137 237q18 16 66 113l305 -29q-18 -14 -50 -64.5t-55 -66.5 q-86 -63 -231 -176z" />
<glyph unicode="&#xd4;" horiz-adv-x="1505" d="M74 1133q0 41 2 47q61 250 241 352q150 88 428 88q319 0 467 -107q102 -74 140 -202q27 -92 26 -252q0 -127 -12 -305q-8 -121 -102 -348q-100 -244 -183 -304q-27 -18 -161.5 -62t-169.5 -44q-289 0 -357 51q-207 162 -276 498q-43 201 -43 588zM266 1595l27 166 q39 31 129 97q109 72 301 194q153 -83 436 -276l-37 -158q-68 37 -420 192zM389 725q0 -287 137 -434q35 -39 232 -39q113 0 164 20q39 16 90 248q37 170 49 279q14 121 14 221q0 264 -100 311q-25 12 -180 29q-142 14 -193 14q-45 0 -119.5 -74.5t-79.5 -121.5 q-14 -172 -14 -453z" />
<glyph unicode="&#xd5;" horiz-adv-x="1505" d="M76 1137q0 39 2 45q74 305 301 381q168 57 369 57q121 0 243 -25q154 -29 230 -82q100 -74 137 -202q27 -90 26 -248q0 -129 -14 -309q-8 -121 -102 -348q-102 -246 -183 -304q-27 -18 -163.5 -62t-169.5 -44q-84 0 -187 10q-137 14 -168 39q-150 117 -219 295 q-49 123 -84 360q-2 4 -8 123q-10 221 -10 314zM311 1726q170 248 281 279q113 -10 323 -94q41 -16 54 -17q53 0 213 82q8 4 43 -4l-54 -139q-88 -90 -96 -98q-63 -53 -117 -54q-35 0 -169 69t-193 69q-55 0 -184 -123q-27 -27 -41 -39zM375 723q0 -293 141 -447 q39 -43 244 -43q123 0 174 23q41 18 94 254q39 172 53 285q16 123 17 225q0 276 -109 328q-27 12 -186 28q-150 15 -203 15q-47 0 -127 -79t-84 -128q-14 -201 -14 -461z" />
<glyph unicode="&#xd6;" horiz-adv-x="1486" d="M72 1098q0 70 3 83t29 76q96 238 281 297q156 49 346 50q127 0 256 -25q160 -33 236 -90q96 -70 131 -189q27 -86 26 -229q0 -133 -20 -342q-10 -121 -109 -346q-104 -242 -186 -299q-29 -18 -165 -59t-171 -41q-76 0 -186 12q-137 18 -168 43q-205 166 -269 487 q-35 178 -34 572zM365 674q0 -254 133 -406q45 -51 264 -51q106 0 153 25q31 14 91 272q47 207 61 301q18 133 18 234q0 231 -96 280q-23 12 -186 31q-154 18 -201 18q-49 0 -129 -76.5t-84 -125.5q-25 -252 -24 -502zM387 1681l12 185l115 32l209 -6l-14 -163l-154 -54z M827 1755l29 146l289 16l10 -141l-55 -82l-211 -21z" />
<glyph unicode="&#xd8;" horiz-adv-x="1531" d="M92 1200q51 150 107 230q80 111 204 149q162 49 338 49t326 -47q45 80 92 145l205 -28q-49 -113 -102 -230q106 -115 106 -376q0 -111 -18 -344q-8 -109 -105 -334q-104 -248 -192 -314q-59 -43 -308 -102q-143 6 -247 25q-29 -50 -58 -95l-245 82q43 72 92 154 q-88 104 -127 235q-27 90 -60 318q-16 406 -8 483zM393 584q8 -76 53 -168q72 117 226 422q141 283 231 413q16 33 47 101q-80 18 -329 41q-55 -10 -130 -80t-77 -119q-10 -154 -21 -307q-12 -190 0 -303zM633 252q184 -29 268 14q29 16 117 293q102 317 102 524q0 45 -6 84 l-6 105q-78 -156 -152 -307q-176 -367 -292 -660z" />
<glyph unicode="&#xd9;" horiz-adv-x="1533" d="M102 1462q0 45 2 88l314 25q-8 -152 -8 -537q0 -420 -2 -356q4 -248 30 -348q23 -82 81.5 -115t178.5 -33q176 0 207 58q74 139 103 350q16 121 22 367q2 78 21 303q14 190 12 303l346 22l-129 -1183q0 -4 -25 -60q-131 -285 -258 -328q-67 -24 -303 -24q-268 0 -350 45 q-63 33 -139 250q-70 199 -70 291l2 73q0 139 -16 404q-18 276 -19 405zM398 1825l286 55q61 -53 215 -270l-174 -43q-45 31 -159 135q-90 80 -168 123z" />
<glyph unicode="&#xda;" horiz-adv-x="1533" d="M102 1462q0 45 2 88l314 25q-8 -152 -8 -537q0 -420 -2 -356q4 -248 30 -348q23 -82 81.5 -115t178.5 -33q176 0 207 58q74 139 103 350q16 121 22 367q2 78 21 303q14 190 12 303l346 22l-129 -1183q0 -4 -25 -60q-131 -285 -258 -328q-67 -24 -303 -24q-268 0 -350 45 q-63 33 -139 250q-70 199 -70 291l2 73q0 139 -16 404q-18 276 -19 405zM612 1542q41 86 127 215q14 16 90 182l279 -26q-18 -12 -63.5 -97.5t-63.5 -99.5q-80 -57 -211 -162z" />
<glyph unicode="&#xdb;" horiz-adv-x="1533" d="M102 1462q0 45 2 88l314 25q-8 -152 -8 -537q0 -420 -2 -356q4 -248 30 -348q23 -82 81.5 -115t178.5 -33q176 0 207 58q74 139 103 350q16 121 22 367q2 78 21 303q14 190 12 303l346 22l-129 -1183q0 -4 -25 -60q-131 -285 -258 -328q-67 -24 -303 -24q-268 0 -350 45 q-63 33 -139 250q-70 199 -70 291l2 73q0 139 -16 404q-18 276 -19 405zM347 1602l24 151q35 27 117 86q98 66 274 178q142 -76 398 -252l-35 -143q-61 35 -381 174z" />
<glyph unicode="&#xdc;" horiz-adv-x="1533" d="M104 1546l314 25q-10 -180 -8 -641q2 -471 16 -537q10 -51 14 -67q12 -37 31 -64q61 -82 205 -88q66 -2 135 16q80 18 94 52q74 164 101 352q18 125 24 364q2 88 21 306q14 180 12 301l346 22l-129 -1184q-37 -92 -90 -184q-102 -172 -193 -201q-74 -25 -303 -24 q-266 0 -350 43q-66 35 -141 256q-70 203 -68 287q4 160 -16 483q-18 317 -15 483zM408 1675l12 185l115 32l208 -6l-14 -164l-154 -53zM848 1749l26 145l291 17l11 -142l-56 -81l-213 -21z" />
<glyph unicode="&#xdf;" />
<glyph unicode="&#xe0;" horiz-adv-x="1263" d="M29 -4q78 508 133 739q96 410 252 705l491 30q160 -553 221 -868q14 -68 35 -201l37 -401l-285 29l-28 415l-377 -47l-152 39l-94 -413zM319 1858l314 -19q33 -72 61 -127q70 -131 109 -160l-221 -24l-203 178zM395 586l449 41q6 -1 6 73q0 59 -59.5 277.5t-90.5 267.5 l-161 -14q-80 -240 -111 -412q-4 -35 -12 -106q-8 -43 -21 -127z" />
<glyph unicode="&#xe1;" horiz-adv-x="1263" d="M29 -4q78 508 133 739q96 410 252 705l491 30q160 -553 221 -868q14 -68 35 -201l37 -401l-285 29l-28 415l-377 -47l-152 39l-94 -413zM395 586l449 41q6 -1 6 73q0 59 -59.5 277.5t-90.5 267.5l-161 -14q-80 -240 -111 -412q-4 -35 -12 -106q-8 -43 -21 -127zM571 1507 q45 92 138 236q18 18 47 115l305 -29q-18 -14 -40.5 -64.5t-45.5 -66.5q-86 -63 -232 -176z" />
<glyph unicode="&#xe2;" horiz-adv-x="1310" d="M29 -4q78 508 133 739q96 410 252 705l491 30q160 -553 221 -868q14 -68 35 -201l37 -401l-285 29l-28 415l-377 -47l-152 39l-94 -413zM266 1446l25 151q35 29 119 89q96 66 272 176q141 -76 397 -252l-32 -144q-63 35 -383 174zM395 586l449 41q6 -1 6 73 q0 59 -59.5 277.5t-90.5 267.5l-161 -14q-80 -240 -111 -412q-4 -35 -12 -106q-8 -43 -21 -127z" />
<glyph unicode="&#xe3;" horiz-adv-x="1310" d="M29 -4q78 508 133 739q96 410 252 705l491 30q160 -553 221 -868q14 -68 35 -201l37 -401l-285 29l-28 415l-377 -47l-152 39l-94 -413zM274 1534q158 223 261 250q96 -8 217 -53q115 -43 118 -43q45 0 187 69q4 0 55 -6l-53 -131q-82 -80 -88 -86q-57 -47 -109 -47 q-35 0 -152.5 58.5t-170.5 58.5q-39 0 -105 -56q-47 -43 -96 -86zM395 586l449 41q6 -1 6 73q0 59 -59.5 277.5t-90.5 267.5l-161 -14q-80 -240 -111 -412q-4 -35 -12 -106q-8 -43 -21 -127z" />
<glyph unicode="&#xe4;" horiz-adv-x="1310" d="M29 -4q78 508 133 739q96 410 252 705l491 30q160 -553 221 -868q14 -68 35 -201l37 -401l-285 29l-28 415l-377 -47l-152 39l-94 -413zM293 1528l12 184l115 33l208 -6l-14 -164l-153 -53zM395 586l449 41q6 -1 6 73q0 59 -59.5 277.5t-90.5 267.5l-161 -14 q-80 -240 -111 -412q-4 -35 -12 -106q-8 -43 -21 -127zM733 1600l27 145l290 18l11 -141l-56 -84l-213 -20z" />
<glyph unicode="&#xe5;" horiz-adv-x="1310" d="M29 -4q78 508 133 739q96 410 252 705l491 30q160 -553 221 -868q14 -68 35 -201l37 -401l-285 29l-28 415l-377 -47l-152 39l-94 -413zM365 1692q6 57 93 98t212 41q133 0 194 -16q121 -31 109 -123q-10 -66 -94 -129q-96 -74 -213 -74q-172 0 -260 47 q-23 16 -35.5 65.5t-5.5 90.5zM395 586l449 41q6 -1 6 73q0 59 -59.5 277.5t-90.5 267.5l-161 -14q-80 -240 -111 -412q-4 -35 -12 -106q-8 -43 -21 -127zM510 1681q-2 -29 29 -53q39 -33 106 -33q55 2 113.5 35t58.5 53q0 31 -125 31q-182 0 -182 -33z" />
<glyph unicode="&#xe6;" horiz-adv-x="1779" d="M29 12q119 748 198 971q78 215 82 229q43 111 103 222l460 30l52 -174q-4 109 12 125q37 37 743 41l-32 -143q-428 -23 -473 -76q-37 -41 -39 -414l34 -41l449 -14l-16 -133l-469 -39q0 -102 4 -178q10 -184 34 -211q35 -39 496 -27l-25 -129q-444 -47 -540 -45 q-33 -2 -193 6q-16 113 -39 289l-381 -35l-176 39l-71 -297zM330 444l522 29q4 29 8 78q2 70 -60 365.5t-89 332.5l-191 -14q-37 -111 -63 -203q-61 -223 -64 -319z" />
<glyph unicode="&#xe7;" horiz-adv-x="1107" d="M49 874q0 59 35 190.5t61 188.5q16 33 96.5 91.5t118.5 70.5q84 27 261 27q301 0 440 -47l-62 -164q-141 25 -256 24q-152 0 -235 -41q-137 -68 -148 -182q-6 -88 -6 -188q0 -362 60 -549q23 -66 114 -105q74 -31 156 -30q63 0 162 14q133 18 162 23l-45 -164 q-84 -14 -258 -39l-60 -88l-153 -101l-140 21l90 70l58 102q-227 39 -271 86q-80 92 -135 381q-45 240 -45 409z" />
<glyph unicode="&#xe8;" horiz-adv-x="1087" d="M156 932q0 426 40 467t648 41q98 0 170 -2l-39 -176q-426 0 -475 -54q-39 -43 -43 -395l30 -39l451 -22l-20 -142l-469 -32v-56q-2 -279 32.5 -319.5t497.5 -32.5l-29 -145q-389 -35 -608 -35q-133 0 -145 18q-41 53 -41 924zM250 1849l313 -18q33 -72 64 -125 q70 -131 108 -162l-221 -22l-203 176z" />
<glyph unicode="&#xe9;" horiz-adv-x="1087" d="M156 932q0 426 40 467t648 41q98 0 170 -2l-39 -176q-426 0 -475 -54q-39 -43 -43 -395l30 -39l451 -22l-20 -142l-469 -32v-56q-2 -279 32.5 -319.5t497.5 -32.5l-29 -145q-389 -35 -608 -35q-133 0 -145 18q-41 53 -41 924zM438 1468q47 92 140 236q16 18 47 115 l305 -29q-18 -14 -42 -64.5t-44 -66.5q-86 -63 -232 -176z" />
<glyph unicode="&#xea;" horiz-adv-x="1101" d="M156 932q0 426 40 467t648 41q98 0 170 -2l-39 -176q-426 0 -475 -54q-39 -43 -43 -395l30 -39l451 -22l-20 -142l-469 -32v-56q-2 -279 32.5 -319.5t497.5 -32.5l-29 -145q-389 -35 -608 -35q-133 0 -145 18q-41 53 -41 924zM197 1479l24 151q35 29 117 88 q98 66 274 176q140 -76 398 -252l-35 -143q-61 35 -381 174z" />
<glyph unicode="&#xeb;" horiz-adv-x="1101" d="M156 932q0 426 40 467t648 41q98 0 170 -2l-39 -176q-426 0 -475 -54q-39 -43 -43 -395l30 -39l451 -22l-20 -142l-469 -32v-56q-2 -279 32.5 -319.5t497.5 -32.5l-29 -145q-389 -35 -608 -35q-133 0 -145 18q-41 53 -41 924zM221 1581l6 109l144 122l149 -61l25 -88 l-156 -113zM676 1655l26 127l195 43l94 -150l-55 -82l-201 -20z" />
<glyph unicode="&#xec;" horiz-adv-x="663" d="M-16 1853l311 -18q35 -72 63 -125q70 -133 109 -162l-221 -24l-203 178zM135 1417l354 33q-23 -360 -45 -719q-26 -438 -26 -717l-219 -18l-52 1071q-2 113 -12 350z" />
<glyph unicode="&#xed;" horiz-adv-x="663" d="M135 1417l354 33q-23 -360 -45 -719q-26 -438 -26 -717l-219 -18l-52 1071q-2 113 -12 350zM193 1483q41 84 126 215q14 16 91 182l278 -27q-18 -12 -63.5 -98t-63.5 -100q-80 -57 -211 -160z" />
<glyph unicode="&#xee;" horiz-adv-x="663" d="M-70 1522l25 151q35 27 117 86q98 66 274 178q139 -75 397 -251l-34 -144q-63 33 -381 174zM135 1417l354 33q-23 -360 -45 -719q-26 -438 -26 -717l-219 -18l-52 1071q-2 113 -12 350z" />
<glyph unicode="&#xef;" horiz-adv-x="663" d="M-43 1591l4 109l143 123l152 -62l25 -88l-158 -112zM135 1417l354 33q-23 -360 -45 -719q-26 -438 -26 -717l-219 -18l-52 1071q-2 113 -12 350zM410 1663l26 129l197 43l92 -149l-55 -82l-199 -23z" />
<glyph unicode="&#xf1;" horiz-adv-x="1435" d="M150 -10q8 0 14 516q6 498 2 620q10 74 29 271q340 14 325 22q104 -215 207 -428q174 -358 281 -532l34 14q-29 365 -75 780l45 195l297 27q-29 -238 -64 -717q-10 -236 -28 -705l-197 -53q-188 356 -574 1034l-26 -33q0 -373 -2 -991zM311 1575q158 223 260 248 q96 -8 217 -51q115 -43 119 -43q45 0 187 67q2 2 53 -4l-51 -131q-82 -82 -88 -86q-59 -49 -111 -49q-33 0 -151.5 59.5t-170.5 59.5q-39 0 -104 -58q-49 -41 -96 -84z" />
<glyph unicode="&#xf2;" horiz-adv-x="1370" d="M68 1030q0 37 2 41q55 229 219 322q137 80 389 80q291 0 426 -99q92 -66 125 -184q25 -82 24 -227q0 -115 -12 -279q-8 -109 -92 -315q-92 -221 -166 -275q-25 -18 -147.5 -58t-153.5 -40q-264 0 -324 47q-190 147 -254 453q-37 182 -36 534zM324 1872l311 -19 q35 -70 63 -124q70 -131 109 -162l-221 -23l-203 176zM352 657q0 -260 125 -393q33 -35 211 -35q104 0 150 19q35 14 82 225q33 154 45 254q14 109 14 199q0 242 -92 284q-23 12 -164 27q-129 12 -176 12q-39 0 -107.5 -67.5t-72.5 -110.5q-14 -156 -15 -414z" />
<glyph unicode="&#xf3;" horiz-adv-x="1370" d="M68 1030q0 37 2 41q55 229 219 322q137 80 389 80q291 0 426 -99q92 -66 125 -184q25 -82 24 -227q0 -115 -12 -279q-8 -109 -92 -315q-92 -221 -166 -275q-25 -18 -147.5 -58t-153.5 -40q-264 0 -324 47q-190 147 -254 453q-37 182 -36 534zM352 657q0 -260 125 -393 q33 -35 211 -35q104 0 150 19q35 14 82 225q33 154 45 254q14 109 14 199q0 242 -92 284q-23 12 -164 27q-129 12 -176 12q-39 0 -107.5 -67.5t-72.5 -110.5q-14 -156 -15 -414zM535 1507q41 84 124 213q16 16 91 185l278 -27q-16 -14 -61.5 -99.5t-65.5 -99.5 q-78 -57 -209 -159z" />
<glyph unicode="&#xf4;" horiz-adv-x="1370" d="M68 1030q0 37 2 41q55 229 219 322q137 80 389 80q291 0 426 -99q92 -66 125 -184q25 -82 24 -227q0 -115 -12 -279q-8 -109 -92 -315q-92 -221 -166 -275q-25 -18 -147.5 -58t-153.5 -40q-264 0 -324 47q-190 147 -254 453q-37 182 -36 534zM236 1479l24 151 q35 27 117 86q98 66 274 178q142 -76 398 -252l-35 -143q-61 35 -381 174zM352 657q0 -260 125 -393q33 -35 211 -35q104 0 150 19q35 14 82 225q33 154 45 254q14 109 14 199q0 242 -92 284q-23 12 -164 27q-129 12 -176 12q-39 0 -107.5 -67.5t-72.5 -110.5 q-14 -156 -15 -414z" />
<glyph unicode="&#xf5;" horiz-adv-x="1370" d="M68 1030q0 37 2 41q55 229 219 322q137 80 389 80q291 0 426 -99q92 -66 125 -184q25 -82 24 -227q0 -115 -12 -279q-8 -109 -92 -315q-92 -221 -166 -275q-25 -18 -147.5 -58t-153.5 -40q-264 0 -324 47q-190 147 -254 453q-37 182 -36 534zM281 1575q158 223 260 248 q96 -8 217 -51q115 -43 119 -43q45 0 186 67q2 2 53 -4l-51 -131q-82 -82 -88 -86q-59 -49 -111 -49q-33 0 -151.5 59.5t-169.5 59.5q-39 0 -105 -58q-49 -41 -96 -84zM352 657q0 -260 125 -393q33 -35 211 -35q104 0 150 19q35 14 82 225q33 154 45 254q14 109 14 199 q0 242 -92 284q-23 12 -164 27q-129 12 -176 12q-39 0 -107.5 -67.5t-72.5 -110.5q-14 -156 -15 -414z" />
<glyph unicode="&#xf6;" horiz-adv-x="1372" d="M70 1071q45 135 96 207q72 102 186 137q147 45 314 45q143 0 272 -30q119 -31 176 -74q143 -104 143 -383q0 -98 -16 -309q-8 -98 -94 -302q-94 -227 -174 -284q-53 -39 -309 -94q-88 10 -154 18q-156 23 -170 35q-141 131 -193 260q-37 94 -71 338q-14 373 -6 436z M305 1538l12 184l115 33l209 -6l-12 -164l-156 -53zM346 616q0 -61 4 -100q14 -135 113 -260q14 -16 86 -29.5t147 -13.5q94 0 133 20q25 12 82 259q63 274 64 462q0 201 -80 242q-37 18 -346 43q-47 -8 -113.5 -69.5t-68.5 -104.5q0 -12 -13 -209q-8 -154 -8 -240z M745 1610l29 145l289 19l10 -144l-55 -82l-211 -20z" />
<glyph unicode="&#xf8;" horiz-adv-x="1378" d="M84 1079q45 135 96 207q72 100 182 135q147 45 306 45q160 0 293 -43q41 72 83 131l185 -26q-45 -100 -94 -205q98 -104 98 -342q0 -98 -19 -307q-8 -98 -92 -301q-94 -225 -174 -283q-53 -39 -276 -92q-129 6 -223 20q-25 -41 -52 -84l-221 74q39 66 84 139 q-80 94 -115 211q-25 82 -55 287q-14 367 -6 434zM354 524q8 -67 47 -149q264 418 412 751q23 49 43 91q-72 16 -297 36q-49 -10 -116.5 -71.5t-69.5 -106.5q-8 -139 -19 -276q-10 -172 0 -275zM539 219q63 -10 147 -4q88 6 124 24.5t112 254.5q92 291 90 567 q-37 -18 -209 -346q-252 -475 -264 -496z" />
<glyph unicode="&#xf9;" horiz-adv-x="1394" d="M94 1321v88l301 23q-8 -127 -8 -492q0 -467 14.5 -576.5t81.5 -144.5q49 -27 168 -26q139 0 162 38q98 178 111 641q2 68 18 277q12 172 10 276l330 21l-117 -1075q0 -4 -24 -58q-119 -256 -236 -297q-61 -22 -272 -22q-244 0 -318 41q-61 33 -129 227q-66 182 -63 268 v66q2 125 -14 362q-14 246 -15 363zM371 1804l313 -18q33 -72 61 -127q70 -131 109 -160l-221 -24l-203 178z" />
<glyph unicode="&#xfa;" horiz-adv-x="1394" d="M94 1321v88l301 23q-8 -127 -8 -492q0 -467 14.5 -576.5t81.5 -144.5q49 -27 168 -26q139 0 162 38q98 178 111 641q2 68 18 277q12 172 10 276l330 21l-117 -1075q0 -4 -24 -58q-119 -256 -236 -297q-61 -22 -272 -22q-244 0 -318 41q-61 33 -129 227q-66 182 -63 268 v66q2 125 -14 362q-14 246 -15 363zM532 1448q41 84 127 215q14 16 91 182l278 -26q-18 -12 -63.5 -97.5t-63.5 -101.5q-80 -57 -211 -160z" />
<glyph unicode="&#xfb;" horiz-adv-x="1394" d="M94 1321v88l301 23q-8 -127 -8 -492q0 -467 14.5 -576.5t81.5 -144.5q49 -27 168 -26q139 0 162 38q98 178 111 641q2 68 18 277q12 172 10 276l330 21l-117 -1075q0 -4 -24 -58q-119 -256 -236 -297q-61 -22 -272 -22q-244 0 -318 41q-61 33 -129 227q-66 182 -63 268 v66q2 125 -14 362q-14 246 -15 363zM303 1493l23 152q35 27 118 86q96 66 273 178q141 -76 397 -252l-33 -144q-63 33 -383 175z" />
<glyph unicode="&#xfc;" horiz-adv-x="1394" d="M94 1409l299 23q-10 -147 -8 -576q2 -432 14 -491q18 -82 41 -115q51 -70 174 -76q57 -2 122 15.5t75 41.5q68 147 92 324q14 104 19 317q2 78 18 277q14 164 10 276l330 21l-115 -1075q-39 -92 -78 -160q-96 -166 -182 -195q-68 -23 -274 -22q-240 0 -318 41 q-61 33 -131 235q-61 184 -61 260q4 145 -13.5 436t-13.5 443zM303 1532l12 184l115 33l209 -6l-12 -164l-156 -53zM745 1604l27 145l289 18l10 -143l-55 -82l-211 -20z" />
<glyph unicode="&#x152;" horiz-adv-x="2121" d="M80 1188q51 152 108 229q78 113 203 152q164 49 340 49q197 0 356 -57q96 47 887 51l-37 -160q-473 -25 -526 -82q-39 -47 -41 -461l37 -45l498 -16l-17 -148l-522 -45q0 -113 4 -196q12 -203 39 -236q39 -41 551 -26l-27 -146q-485 -51 -708 -51q-111 0 -119 14 q-14 23 -25 115q-21 -25 -41 -39q-59 -43 -305 -102q-307 12 -356 57q-154 143 -211 287q-41 104 -80 375q-16 406 -8 481zM381 573q16 -152 129 -292q14 -18 87 -34t151 -16q96 0 141 25q20 10 76 223q61 238 82 441l-3 57q-2 106 -2 217q-20 109 -81 139q-42 22 -351 49 q-57 -10 -132 -79.5t-77 -118.5q-10 -154 -20 -307q-10 -190 0 -304z" />
<glyph unicode="&#x153;" horiz-adv-x="1910" d="M72 1069q47 135 96 207q72 100 184 135q147 45 305 45q178 0 322 -53q86 43 799 47l-35 -143q-426 -23 -471 -74q-37 -41 -39 -414l33 -41l448 -16l-16 -131l-469 -41q2 -100 6 -176q8 -184 35 -211q35 -39 495 -27l-24 -131q-438 -45 -639 -45q-98 0 -108.5 16.5 t-20.5 100.5q-19 -23 -35 -35q-55 -41 -276 -92q-276 10 -320 51q-139 129 -190 258q-37 92 -72 338q-16 365 -8 432zM344 516q14 -137 115 -264q35 -43 213 -43q88 0 127 20q20 10 69 203q55 213 74 395l-2 52q-2 96 -2 196q-18 98 -74 125q-36 18 -315 45 q-51 -10 -119 -72.5t-70 -107.5q-8 -137 -16 -277q-10 -172 0 -272z" />
<glyph unicode="&#x2dc;" horiz-adv-x="1368" d="M127 588q41 106 115.5 219t105.5 115q100 8 291 -33q104 -35 307 -78q18 0 64 35q61 47 65 49q49 4 115 4l-41 -82q-41 -55 -80 -110q-74 -92 -147 -97q-74 -4 -244 43q-125 35 -141 39q-82 20 -146 23q-37 2 -110 -74q-41 -43 -48 -47q-43 -4 -106 -6z" />
<glyph unicode="&#x2000;" horiz-adv-x="1026" />
<glyph unicode="&#x2001;" horiz-adv-x="2052" />
<glyph unicode="&#x2002;" horiz-adv-x="1026" />
<glyph unicode="&#x2003;" horiz-adv-x="2052" />
<glyph unicode="&#x2004;" horiz-adv-x="684" />
<glyph unicode="&#x2005;" horiz-adv-x="513" />
<glyph unicode="&#x2006;" horiz-adv-x="342" />
<glyph unicode="&#x2007;" horiz-adv-x="342" />
<glyph unicode="&#x2008;" horiz-adv-x="256" />
<glyph unicode="&#x2009;" horiz-adv-x="410" />
<glyph unicode="&#x200a;" horiz-adv-x="114" />
<glyph unicode="&#x2010;" horiz-adv-x="942" d="M90 522l39 223q76 12 242 29q16 2 477 10l-80 -233q-113 -25 -334 -29h-344z" />
<glyph unicode="&#x2011;" horiz-adv-x="942" d="M90 522l39 223q76 12 242 29q16 2 477 10l-80 -233q-113 -25 -334 -29h-344z" />
<glyph unicode="&#x2012;" horiz-adv-x="942" d="M90 522l39 223q76 12 242 29q16 2 477 10l-80 -233q-113 -25 -334 -29h-344z" />
<glyph unicode="&#x2013;" horiz-adv-x="1325" d="M45 522l43 230q197 18 528 18q301 2 549 31l-47 -252q-440 -33 -774 -33q-154 0 -299 6z" />
<glyph unicode="&#x2014;" horiz-adv-x="2330" d="M195 678q223 18 696 43q209 6 559 29q377 23 559 30l-24 -202q-223 -18 -701 -43q-346 0 -1071 -15z" />
<glyph unicode="&#x2018;" horiz-adv-x="614" d="M72 1579l303 55l78 -176q23 -20 49 -80q31 -70 49 -96q10 -16 -125 -45q-78 61 -238 176q-18 10 -59 83t-57 83z" />
<glyph unicode="&#x2019;" horiz-adv-x="585" d="M27 1282q43 84 127 215q16 16 90 182l278 -26q-18 -12 -62.5 -97.5t-64.5 -101.5q-78 -57 -209 -160z" />
<glyph unicode="&#x201a;" horiz-adv-x="944" d="M184 -291q31 39 86 117q27 39 64 139q61 174 69 193l310 -52l-166 -268q-29 -43 -236 -98q-55 -14 -127 -31z" />
<glyph unicode="&#x201c;" horiz-adv-x="995" d="M61 1477q92 -88 258 -320q117 -45 261 -94q-2 12 -95 225q-96 222 -108 232zM446 1460q49 -49 132 -175t124 -161q47 -43 105 -63q35 -12 135 -35q-37 94 -113 279l-92 219z" />
<glyph unicode="&#x201d;" horiz-adv-x="952" d="M20 1044q39 92 117 279l96 219l291 -65q-49 -47 -135 -173t-125 -161q-51 -43 -108 -66q-33 -12 -136 -33zM385 1079q94 221 211 457l313 -41q-92 -88 -262 -319z" />
<glyph unicode="&#x201e;" horiz-adv-x="1062" d="M43 -238q37 94 117 281l96 219l289 -65q-49 -47 -135 -173t-125 -161q-49 -45 -107 -66q-35 -12 -135 -35zM442 -201q2 12 99 226q98 221 112 231l314 -41q-92 -90 -262 -321q-119 -45 -263 -95z" />
<glyph unicode="&#x2022;" horiz-adv-x="1007" d="M211 739q2 115 84 196t197 81t195.5 -81t78.5 -196q0 -117 -82 -197.5t-199 -80.5q-115 0 -194.5 80.5t-79.5 197.5z" />
<glyph unicode="&#x2026;" horiz-adv-x="2342" d="M283 80l155 94l146 -84l-154 -94zM961 78l153 94l146 -84l-152 -94zM1651 76l153 96l146 -84l-152 -96z" />
<glyph unicode="&#x202f;" horiz-adv-x="410" />
<glyph unicode="&#x205f;" horiz-adv-x="513" />
<glyph unicode="&#x20ac;" horiz-adv-x="1511" d="M31 504l39 168l198 2l-8 92l-215 -4l53 168h174q27 211 109 352q20 35 111.5 95.5t134.5 72.5q102 29 307 29q319 0 485 -47l-73 -172q-150 23 -281 22q-219 0 -328 -63q-135 -82 -151 -285l727 20l-66 -186l-669 4l-3 -96l728 14l-68 -192l-649 10q6 -43 43 -154 q25 -70 151 -127q115 -53 199 -53q137 0 379 53q-20 -127 -43 -174q-256 -70 -375 -67h-45q-92 2 -233 45q-160 49 -207 104q-104 115 -166 371z" />
<glyph unicode="&#x2122;" horiz-adv-x="1488" d="M-55 1341l4 105l596 18l-4 -100l-205 -10l-17 -580l-151 -6l14 582zM590 782l20 686l199 7l160 -500l184 512l197 6l-21 -684l-147 -6l18 473l-172 -477l-137 -4l-143 458l-9 -465z" />
<glyph unicode="&#x25fc;" horiz-adv-x="1443" d="M0 0v1444h1444v-1444h-1444z" />
</font>
</defs>
</svg>
