<?xml version="1.0" standalone="no"?>
<!DOCTYPE svg PUBLIC "-//W3C//DTD SVG 1.1//EN" "http://www.w3.org/Graphics/SVG/1.1/DTD/svg11.dtd" >
<svg xmlns="http://www.w3.org/2000/svg" xmlns:xlink="http://www.w3.org/1999/xlink" version="1.1">
<metadata></metadata>
<defs>
<font id="zelda_dx_tt_brkregular" horiz-adv-x="1425" >
<font-face units-per-em="2048" ascent="1638" descent="-410" />
<missing-glyph horiz-adv-x="500" />
<glyph horiz-adv-x="0" />
<glyph horiz-adv-x="682" />
<glyph unicode=" " />
<glyph unicode="!" d="M356 0h357v178h-357v-178zM535 356h178v357h178v534h-356v-891z" />
<glyph unicode="&#x22;" d="M178 713h178v178h-178v-178zM178 1069h178v-178h179v356h-357v-178zM713 713h178v178h-178v-178zM713 1069h178v-178h178v356h-356v-178z" />
<glyph unicode="#" d="M0 356h178v-356h178v356h179v-356h178v356h356v179h-178v178h356v178h-178v356h-178v-356h-178v356h-178v-356h-357v-178h178v-178h-356v-179zM535 535v178h178v-178h-178z" />
<glyph unicode="$" d="M0 178h178v-178h713v178h-356v178h-179v-178h-178v178h-178v-178zM178 713h178v-178h179v-179h178v179h178v-357h178v357h-178v178h-178v178h-178v-178h-179v356h-178v-356zM356 1069h357v-178h178v178h178v-178h178v178h-178v178h-713v-178z" />
<glyph unicode="%" d="M178 713h357v356h-357v-356zM356 0h179v178h-179v-178zM535 178h178v357h-178v-357zM713 535h178v356h-178v-356zM891 0h356v356h-356v-356zM891 891h178v178h-178v-178z" />
<glyph unicode="&#x26;" d="M0 0h178v-178h535v178h-535v356h-178v-356zM178 356h357v-178h178v-178h356v-178h178v178h-178v178h-178v178h-356v179h178v178h-178v356h-179v-534h-178v-179zM535 1069h178v-356h178v356h-178v178h-178v-178zM891 356h356v179h-356v-179z" />
<glyph unicode="'" d="M178 713h178v178h-178v-178zM178 1069h178v-178h179v356h-357v-178z" />
<glyph unicode="(" d="M356 178h179v-178h178v-178h356v178h-356v178h-178v713h-179v-713zM535 891h178v178h-178v-178zM713 1069h356v178h-356v-178z" />
<glyph unicode=")" d="M178 0v-178h357v178h-357zM178 1069h357v-178h178v-713h178v713h-178v178h-178v178h-357v-178zM535 0h178v178h-178v-178z" />
<glyph unicode="*" d="M178 713h178v178h-178v-178zM178 1069h178v-178h179v-178h178v178h178v-178h178v178h-178v178h-178v178h-178v-178h-179v178h-178v-178zM891 1069h178v178h-178v-178z" />
<glyph unicode="+" d="M178 356h357v-356h178v356h356v179h-356v356h-178v-356h-357v-179z" />
<glyph unicode="," d="M178 0v-178h178v178h-178zM178 178h178v-178h179v356h-357v-178z" />
<glyph unicode="-" d="M178 356h891v179h-891v-179z" />
<glyph unicode="." d="M178 0h357v356h-357v-356z" />
<glyph unicode="/" d="M178 -178h178v356h-178v-356zM356 178h179v357h-179v-357zM535 535h178v356h-178v-356zM713 891h178v356h-178v-356z" />
<glyph unicode="0" d="M178 178h178v-178h357v178h-357v357h-178v-357zM356 535h179v356h-179v-356zM535 891h356v-356h178v534h-534v-178zM713 178h178v357h-178v-357z" />
<glyph unicode="1" d="M356 0h179v356h-179v-356zM535 356h178v357h-178v-357zM713 713h178v356h-178v-356z" />
<glyph unicode="2" d="M178 0h891v178h-356v178h-178v-178h-357v-178zM356 713h179v178h-179v-178zM535 891h356v-356h178v178h178v178h-178v178h-534v-178zM713 356h178v179h-178v-179z" />
<glyph unicode="3" d="M178 178h178v-178h535v178h-535v178h-178v-178zM356 713h179v178h-179v-178zM535 891h356v-178h-178v-178h178v-357h178v535h178v178h-178v178h-534v-178z" />
<glyph unicode="4" d="M178 178h535v-178h178v178h356v178h-178v179h-178v-179h-356v179h-179v-179h-178v-178zM535 535h178v178h-178v-178zM713 713h178v178h-178v-178zM891 891h178v178h-178v-178z" />
<glyph unicode="5" d="M178 0h713v178h-713v-178zM356 535h535v-357h178v357h-178v178h-178v178h534v178h-712v-356h-179v-178z" />
<glyph unicode="6" d="M178 178h178v-178h535v178h-356v357h-179v-179h-178v-178zM535 535h356v-357h178v357h-178v356h-178v-178h-178v-178zM891 891h178v178h-178v-178z" />
<glyph unicode="7" d="M178 891h535v-178h178v178h178v178h-891v-178zM356 0h179v356h-179v-356zM535 356h178v357h-178v-357z" />
<glyph unicode="8" d="M178 178h178v-178h535v178h-535v178h-178v-178zM356 356h179v179h-179v-179zM356 713h179v-178h356v-357h178v357h-178v178h-356v178h-179v-178zM535 891h356v-178h178v178h178v178h-712v-178z" />
<glyph unicode="9" d="M356 0h179v178h-179v-178zM356 535h179v-357h178v178h178v179h-356v356h-179v-356zM535 891h356v-356h178v178h178v178h-178v178h-534v-178z" />
<glyph unicode=":" d="M178 0h357v356h-357v-356zM356 713h357v356h-357v-356z" />
<glyph unicode=";" d="M178 0v-178h178v178h-178zM178 178h178v-178h179v356h-357v-178zM356 713h357v356h-357v-356z" />
<glyph unicode="&#x3c;" d="M178 356h178v-178h357v-178h356v178h-356v178h-357v179h-178v-179zM356 535h357v178h-357v-178zM713 713h356v178h-356v-178z" />
<glyph unicode="=" d="M178 178h891v178h-891v-178zM178 535h891v178h-891v-178z" />
<glyph unicode="&#x3e;" d="M178 0h357v178h-357v-178zM178 713h357v-178h356v-179h178v179h-178v178h-356v178h-357v-178zM535 178h356v178h-356v-178z" />
<glyph unicode="?" d="M178 0h357v178h-357v-178zM178 891h357v178h356v-356h-356v-178h-179v-179h357v179h356v178h178v356h-178v178h-713v-178h-178v-178z" />
<glyph unicode="@" d="M0 0h178v-178h713v178h-713v713h-178v-713zM178 713h178v356h-178v-356zM356 1069h713v-178h-356v-178h356v-178h178v534h-178v178h-713v-178zM535 178h534v357h-178v-179h-178v357h-178v-535z" />
<glyph unicode="A" d="M0 0h178v178h-178v-178zM178 178h178v178h-178v-178zM356 356h713v-356h178v1247h-178v-178h-178v-178h178v-356h-356v178h-178v-178h-179v-179zM713 713h178v178h-178v-178z" />
<glyph unicode="B" d="M0 0h891v178h-713v178h-178v-356zM178 356h178v179h535v-357h178v535h-534v356h534v-356h178v356h-178v178h-713v-534h-178v-357z" />
<glyph unicode="C" d="M0 178h178v-178h713v178h-713v357h-178v-357zM178 535h178v356h-178v-356zM356 891h179v178h-179v-178zM535 1069h534v-178h178v178h-178v178h-534v-178zM891 178h178v178h-178v-178z" />
<glyph unicode="D" d="M0 0h891v178h-713v178h-178v-356zM178 356h178v357h-178v-357zM356 713h179v356h534v-713h178v713h-178v178h-713v-534zM891 178h178v178h-178v-178z" />
<glyph unicode="E" d="M0 0h1069v178h-891v178h-178v-356zM178 356h178v179h713v178h-534v356h712v178h-891v-534h-178v-357z" />
<glyph unicode="F" d="M0 0h178v356h-178v-356zM178 356h178v179h713v178h-534v356h712v178h-891v-534h-178v-357z" />
<glyph unicode="G" d="M0 178h178v-178h713v178h-713v357h-178v-357zM178 535h178v356h-178v-356zM356 891h179v178h-179v-178zM535 1069h534v-178h178v178h-178v178h-534v-178zM713 356h178v-178h178v178h178v179h-534v-179z" />
<glyph unicode="H" d="M0 0h178v356h-178v-356zM178 356h178v179h535v-179h178v535h-178v-178h-535v178h-178v-535zM356 891h179v356h-179v-356zM713 0h178v356h-178v-356zM1069 891h178v356h-178v-356z" />
<glyph unicode="I" d="M178 0h535v178h-178v357h-179v-357h-178v-178zM535 535h178v356h-178v-356zM535 1069h178v-178h178v178h178v178h-534v-178z" />
<glyph unicode="J" d="M0 178h178v357h-178v-357zM178 0h535v178h-535v-178zM713 178h178v357h-178v-357zM891 535h178v356h-178v-356zM1069 891h178v356h-178v-356z" />
<glyph unicode="K" d="M0 0h178v356h-178v-356zM178 356h357v-178h178v-178h178v178h-178v178h-178v357h178v178h-178v356h-179v-534h-178v-357zM713 891h178v178h-178v-178zM891 1069h178v178h-178v-178z" />
<glyph unicode="L" d="M0 0h891v178h-713v178h-178v-356zM178 356h178v535h-178v-535zM356 891h179v356h-179v-356z" />
<glyph unicode="M" d="M0 0h178v356h-178v-356zM178 356h178v357h-178v-357zM356 713h179v-178h178v178h178v178h-178v356h-178v-178h-179v-356zM891 0h178v535h-178v-535zM891 891h178v-356h178v712h-178v-178h-178v-178z" />
<glyph unicode="N" d="M0 0h178v356h-178v-356zM178 356h178v357h179v-178h178v-179h178v-356h178v713h-178v-178h-178v356h-178v356h-179v-356h-178v-535zM1069 713h178v534h-178v-534z" />
<glyph unicode="O" d="M0 178h178v-178h713v178h-713v535h-178v-535zM178 713h178v356h-178v-356zM356 1069h713v-534h178v534h-178v178h-713v-178zM891 178h178v357h-178v-357z" />
<glyph unicode="P" d="M0 0h178v356h-178v-356zM178 356h178v179h713v178h-713v178h-178v-535zM356 891h179v178h534v-356h178v356h-178v178h-713v-356z" />
<glyph unicode="Q" d="M0 178h178v-178h713v178h-713v535h-178v-535zM178 713h178v356h-178v-356zM356 1069h713v-534h178v534h-178v178h-713v-178zM535 356h356v-178h178v-178h178v178h-178v357h-534v-179z" />
<glyph unicode="R" d="M0 0h178v356h-178v-356zM178 356h178v179h357v-535h178v535h178v178h-713v178h-178v-535zM356 891h179v178h534v-356h178v356h-178v178h-713v-356z" />
<glyph unicode="S" d="M0 178h178v-178h713v178h-713v178h-178v-178zM178 713h178v-178h535v-357h178v357h-178v178h-535v356h-178v-356zM356 1069h713v-178h178v178h-178v178h-713v-178z" />
<glyph unicode="T" d="M178 0h178v356h-178v-356zM178 1069h357v-356h178v356h534v178h-1069v-178zM356 356h179v357h-179v-357z" />
<glyph unicode="U" d="M0 178h178v-178h535v178h-535v357h-178v-357zM178 535h178v356h-178v-356zM356 891h179v356h-179v-356zM713 178h178v357h-178v-357zM891 535h178v356h-178v-356zM1069 891h178v356h-178v-356z" />
<glyph unicode="V" d="M0 0h178v178h178v178h-178v891h-178v-1247zM356 356h179v179h-179v-179zM535 535h178v178h-178v-178zM713 713h178v178h-178v-178zM891 891h178v178h-178v-178zM1069 1069h178v178h-178v-178z" />
<glyph unicode="W" d="M0 0h178v178h178v178h-178v357h-178v-713zM178 713h178v534h-178v-534zM356 356h179v-178h178v-178h178v356h-178v357h-178v-178h-179v-179zM891 356h178v535h-178v-535zM1069 891h178v356h-178v-356z" />
<glyph unicode="X" d="M0 0h178v178h-178v-178zM178 178h178v178h-178v-178zM356 356h357v-356h178v356h-178v357h178v178h-356v356h-179v-356h179v-356h-179v-179zM891 891h178v178h-178v-178zM1069 1069h178v178h-178v-178z" />
<glyph unicode="Y" d="M178 0h178v356h-178v-356zM178 891h178v-535h179v357h178v178h-357v356h-178v-356zM713 891h356v178h-356v-178zM1069 1069h178v178h-178v-178z" />
<glyph unicode="Z" d="M0 0h1069v178h-713v178h-178v-178h-178v-178zM178 1069h713v-178h178v178h178v178h-1069v-178zM356 356h179v179h-179v-179zM535 535h178v178h-178v-178zM713 713h178v178h-178v-178z" />
<glyph unicode="[" d="M178 -178h535v178h-357v178h-178v-356zM356 178h179v357h-179v-357zM535 535h178v356h-178v-356zM713 891h178v178h356v178h-534v-356z" />
<glyph unicode="\" d="M178 891h178v-356h179v-357h178v-356h178v356h-178v357h-178v356h-179v356h-178v-356z" />
<glyph unicode="]" d="M178 0v-178h535v356h-178v-178h-357zM713 178h178v357h-178v-357zM713 1069h356v-178h178v356h-534v-178zM891 535h178v356h-178v-356z" />
<glyph unicode="^" d="M356 891h179v178h-179v-178zM535 1069h178v-178h178v178h-178v178h-178v-178z" />
<glyph unicode="_" d="M178 0v-178h891v178h-891z" />
<glyph unicode="`" d="M178 1069h178v-178h179v178h-179v178h-178v-178z" />
<glyph unicode="a" d="M178 178h178v-178h357v178h-357v357h-178v-357zM356 535h179v178h-179v-178zM535 713h356v-357h178v357h-178v178h-356v-178zM713 178h178v-178h178v178h-178v178h-178v-178z" />
<glyph unicode="b" d="M178 0h713v178h-535v178h-178v-356zM356 356h179v179h356v-357h178v357h-178v178h-356v178h-179v-535zM535 891h178v356h-178v-356z" />
<glyph unicode="c" d="M178 178h178v-178h535v178h-535v357h-178v-357zM356 535h179v178h-179v-178zM535 713h356v178h-356v-178z" />
<glyph unicode="d" d="M178 178h178v-178h535v535h178v356h-178v-178h-535v-178h357v-357h-357v357h-178v-357zM1069 891h178v356h-178v-356z" />
<glyph unicode="e" d="M178 178h178v-178h535v178h-535v178h713v357h-178v178h-356v-178h356v-178h-356v178h-179v-178h-178v-357z" />
<glyph unicode="f" d="M178 713h357v-357h178v357h534v178h-356v178h-178v-178h-535v-178zM356 0h179v356h-179v-356zM891 1069h356v178h-356v-178z" />
<glyph unicode="g" d="M178 -178h535v178h-357v178h-178v-356zM356 356h179v-178h178v-178h178v178h178v535h-178v178h-356v-178h-179v-357zM535 356v357h356v-357h-356z" />
<glyph unicode="h" d="M178 0h178v356h-178v-356zM356 356h357v-356h178v535h-356v356h-179v-535zM535 891h178v356h-178v-356z" />
<glyph unicode="i" d="M356 0h179v356h-179v-356zM535 356h178v357h-178v-357zM713 1069h356v178h-356v-178z" />
<glyph unicode="j" d="M0 0h178v-178h357v178h-357v178h-178v-178zM535 0h178v356h-178v-356zM713 356h178v357h-178v-357zM713 1069h356v178h-356v-178z" />
<glyph unicode="k" d="M178 0h178v356h-178v-356zM356 356h357v-178h178v-178h178v178h-178v178h-178v179h-178v356h-179v-535zM535 891h178v356h-178v-356zM713 535h178v178h-178v-178zM891 713h178v178h-178v-178z" />
<glyph unicode="l" d="M356 0h179v356h-179v-356zM535 356h178v535h-178v-535zM713 891h178v356h-178v-356z" />
<glyph unicode="m" d="M178 0h178v356h-178v-356zM356 356h179v-356h178v356h-178v357h178v-357h178v-356h178v356h-178v357h-178v178h-357v-535zM891 713h178v-357h178v357h-178v178h-178v-178z" />
<glyph unicode="n" d="M178 0h178v356h-178v-356zM356 356h179v179h178v178h-178v178h-179v-535zM713 0h178v356h-178v-356zM713 713h178v-357h178v357h-178v178h-178v-178z" />
<glyph unicode="o" d="M178 178h178v-178h357v178h-357v357h-178v-357zM356 535h179v178h-179v-178zM535 713h356v-357h178v357h-178v178h-356v-178zM713 178h178v178h-178v-178z" />
<glyph unicode="p" d="M178 -178h178v356h-178v-356zM356 178h535v178h-356v357h-179v-535zM535 713h356v-357h178v357h-178v178h-356v-178z" />
<glyph unicode="q" d="M178 356h178v-178h357v-178h178v356h-535v179h-178v-179zM356 535h179v178h-179v-178zM535 0v-178h178v178h-178zM535 713h356v-357h178v357h-178v178h-356v-178z" />
<glyph unicode="r" d="M356 0h179v356h-179v-356zM535 356h178v179h178v178h-178v178h-178v-535zM891 713h178v178h-178v-178z" />
<glyph unicode="s" d="M178 178h178v-178h357v178h-357v178h-178v-178zM356 535h179v-179h178v-178h178v178h-178v179h-178v178h-179v-178zM535 713h356v-178h178v178h-178v178h-356v-178z" />
<glyph unicode="t" d="M356 0h179v356h-179v-356zM356 713h179v-357h178v357h356v178h-178v178h-178v-178h-357v-178z" />
<glyph unicode="u" d="M178 178h178v-178h357v178h-357v357h-178v-357zM356 535h179v356h-179v-356zM713 178h178v-178h178v178h-178v357h-178v-357zM891 535h178v356h-178v-356z" />
<glyph unicode="v" d="M178 0h178v178h179v178h-179v535h-178v-891zM535 356h178v179h-178v-179zM713 535h178v178h-178v-178zM891 713h178v178h-178v-178z" />
<glyph unicode="w" d="M178 178h178v-178h179v178h-179v357h-178v-357zM356 535h179v-357h178v-178h178v178h-178v357h-178v356h-179v-356zM713 535h178v-357h178v357h-178v356h-178v-356zM1069 535h178v356h-178v-356z" />
<glyph unicode="x" d="M178 0h178v178h-178v-178zM356 178h179v178h-179v-178zM356 713h179v-357h178v-356h178v356h-178v179h178v178h-356v178h-179v-178zM891 713h178v178h-178v-178z" />
<glyph unicode="y" d="M178 0v-178h178v178h-178zM356 0h179v178h-179v-178zM356 713h179v-535h178v178h178v179h-178v178h-178v178h-179v-178zM891 535h178v178h-178v-178zM1069 713h178v178h-178v-178z" />
<glyph unicode="z" d="M178 0h713v178h-356v178h-179v-178h-178v-178zM356 713h357v-178h178v178h178v178h-713v-178zM535 356h178v179h-178v-179z" />
<glyph unicode="{" d="M178 535h178v-357h179v-178h178v-178h356v178h-356v178h-178v713h-179v-178h-178v-178zM535 891h178v178h-178v-178zM713 1069h356v178h-356v-178z" />
<glyph unicode="|" d="M356 -178h179v713h-179v-713zM535 535h178v712h-178v-712z" />
<glyph unicode="}" d="M178 0v-178h357v178h-357zM178 1069h357v-178h178v-713h178v357h178v178h-178v178h-178v178h-178v178h-357v-178zM535 0h178v178h-178v-178z" />
<glyph unicode="~" d="M178 356h178v179h179v-179h356v357h-178v-178h-178v178h-357v-357z" />
<glyph d="M0 535h178v-179h178v-178h179v-178h178v178h-178v178h-179v179h-178v534h-178v-534zM178 1069h357v-178h178v178h-178v178h-357v-178zM713 178h178v178h-178v-178zM713 1069h356v-534h178v534h-178v178h-356v-178zM891 356h178v179h-178v-179z" />
<glyph d="M0 535h178v-179h178v-178h179v-178h178v178h-178v178h-179v179h-178v534h-178v-534zM178 1069h357v-178h178v178h-178v178h-357v-178zM713 178h178v178h-178v-178zM713 1069h356v-534h178v534h-178v178h-356v-178zM891 356h178v179h-178v-179z" />
<glyph d="M0 535h178v-179h178v-178h179v-178h178v178h-178v178h-179v179h-178v534h-178v-534zM178 1069h357v-178h178v178h-178v178h-357v-178zM713 178h178v178h-178v-178zM713 1069h356v-534h178v534h-178v178h-356v-178zM891 356h178v179h-178v-179z" />
<glyph d="M0 535h178v-179h178v-178h179v-178h178v178h-178v178h-179v179h-178v534h-178v-534zM178 1069h357v-178h178v178h-178v178h-357v-178zM713 178h178v178h-178v-178zM713 1069h356v-534h178v534h-178v178h-356v-178zM891 356h178v179h-178v-179z" />
<glyph d="M0 535h178v-179h178v-178h179v-178h178v178h-178v178h-179v179h-178v534h-178v-534zM178 1069h357v-178h178v178h-178v178h-357v-178zM713 178h178v178h-178v-178zM713 1069h356v-534h178v534h-178v178h-356v-178zM891 356h178v179h-178v-179z" />
<glyph d="M0 535h178v-179h178v-178h179v-178h178v178h-178v178h-179v179h-178v534h-178v-534zM178 1069h357v-178h178v178h-178v178h-357v-178zM713 178h178v178h-178v-178zM713 1069h356v-534h178v534h-178v178h-356v-178zM891 356h178v179h-178v-179z" />
<glyph d="M0 535h178v-179h178v-178h179v-178h178v178h-178v178h-179v179h-178v534h-178v-534zM178 1069h357v-178h178v178h-178v178h-357v-178zM713 178h178v178h-178v-178zM713 1069h356v-534h178v534h-178v178h-356v-178zM891 356h178v179h-178v-179z" />
<glyph d="M0 535h178v-179h178v-178h179v-178h178v178h-178v178h-179v179h-178v534h-178v-534zM178 1069h357v-178h178v178h-178v178h-357v-178zM713 178h178v178h-178v-178zM713 1069h356v-534h178v534h-178v178h-356v-178zM891 356h178v179h-178v-179z" />
<glyph d="M0 535h178v-179h178v-178h179v-178h178v178h-178v178h-179v179h-178v534h-178v-534zM178 1069h357v-178h178v178h-178v178h-357v-178zM713 178h178v178h-178v-178zM713 1069h356v-534h178v534h-178v178h-356v-178zM891 356h178v179h-178v-179z" />
<glyph unicode="&#xa0;" />
<glyph unicode="&#xa1;" d="M356 0h357v891h-178v-356h-179v-535zM535 1069h356v178h-356v-178z" />
<glyph unicode="&#xa2;" d="M178 178h178v-356h179v178h356v178h-178v357h-178v178h-179v-178h179v-357h-179v357h-178v-357zM535 713h178v-178h178v178h178v178h-178v178h-178v-178h-178v-178z" />
<glyph unicode="&#xa3;" d="M0 -178h891v178h-713v178h-178v-356zM0 535h178v-357h178v357h357v178h-178v356h-179v-356h-356v-178zM535 1069h356v-178h178v178h-178v178h-356v-178z" />
<glyph unicode="&#xa4;" d="M178 0h178v178h-178v-178zM178 713h178v178h-178v-178zM356 178h535v-178h178v178h-178v535h-535v-535zM535 356v179h178v-179h-178zM891 713h178v178h-178v-178z" />
<glyph unicode="&#xa5;" d="M0 178h178v-178h178v178h357v178h-178v179h356v178h-178v178h-357v356h-178v-356h178v-178h-178v-178h178v-179h-356v-178zM713 891h356v178h-356v-178zM1069 1069h178v178h-178v-178z" />
<glyph unicode="&#xa6;" d="M356 -178h179v534h-179v-534zM535 713h178v534h-178v-534z" />
<glyph unicode="&#xa7;" d="M178 178h178v-178h357v178h-357v178h-178v-178zM356 535h179v-179h178v-178h178v357h-356v178h-179v-178zM535 713h356v-178h178v178h-178v178h-178v178h-178v-356zM713 1069h356v-178h178v178h-178v178h-356v-178z" />
<glyph unicode="&#xa8;" d="M178 1069h178v178h-178v-178zM713 1069h178v178h-178v-178z" />
<glyph unicode="&#xa9;" d="M0 178h178v-178h713v178h-713v535h-178v-535zM178 713h178v-357h357v179h-178v178h-179v356h-178v-356zM356 1069h713v-534h178v534h-178v178h-713v-178zM535 713h356v178h-356v-178zM891 178h178v357h-178v-357z" />
<glyph unicode="&#xaa;" d="M178 713h535v178h-178v356h-357v-534z" />
<glyph unicode="&#xab;" d="M178 356h178v-178h179v178h-179v179h-178v-179zM356 535h179v-179h178v-178h178v178h-178v179h-178v178h-179v-178zM713 535h178v178h-178v-178z" />
<glyph unicode="&#xac;" d="M178 356h535v-178h178v357h-713v-179z" />
<glyph unicode="&#xad;" d="M178 356h357v179h-357v-179z" />
<glyph unicode="&#xae;" d="M0 178h178v-178h713v178h-713v535h-178v-535zM178 713h178v-357h179v179h178v-179h178v-178h178v357h-356v178h178v178h-535v178h-178v-356zM356 1069h713v-534h178v534h-178v178h-713v-178z" />
<glyph unicode="&#xaf;" d="M178 1069h891v178h-891v-178z" />
<glyph unicode="&#xb0;" d="M178 713h535v534h-535v-534zM356 891v178h179v-178h-179z" />
<glyph unicode="&#xb1;" d="M356 178h535v178h-535v-178zM356 713h179v-178h178v178h178v178h-178v178h-178v-178h-179v-178z" />
<glyph unicode="&#xb2;" d="M178 713h357v356h-179v178h-178v-178h178v-178h-178v-178z" />
<glyph unicode="&#xb3;" d="M178 713h357v534h-357v-178h178v-178h-178v-178z" />
<glyph unicode="&#xb4;" d="M178 891h178v178h-178v-178zM356 1069h179v178h-179v-178z" />
<glyph unicode="&#xb5;" d="M0 0v-178h178v178h-178zM178 0h178v356h-178v-356zM356 356h179v-178h356v178h-356v357h-179v-357zM535 713h178v356h-178v-356zM891 356h178v357h-178v-357zM1069 713h178v356h-178v-356z" />
<glyph unicode="&#xb6;" d="M0 713h178v-178h178v-179h179v-356h178v356h-178v357h178v-357h178v357h-178v356h178v-356h178v356h178v178h-1069v-178h-178v-356zM178 0h178v356h-178v-356z" />
<glyph unicode="&#xb7;" d="M178 356h178v179h-178v-179z" />
<glyph unicode="&#xb8;" d="M178 0v-178h357v356h-179v-178h-178z" />
<glyph unicode="&#xb9;" d="M178 713h178v534h-178v-534z" />
<glyph unicode="&#xba;" d="M178 713h357v534h-357v-534z" />
<glyph unicode="&#xbb;" d="M178 178h178v178h-178v-178zM178 535h178v-179h179v-178h178v178h-178v179h-179v178h-178v-178zM535 535h178v-179h178v179h-178v178h-178v-178z" />
<glyph unicode="&#xbc;" d="M0 1069h178v-534h178v-357h179v357h-179v712h-356v-178zM178 -178h178v356h-178v-356zM535 535h178v-535h356v-178h178v713h-178v-357h-178v357h-178v356h-178v-356zM713 891h178v356h-178v-356z" />
<glyph unicode="&#xbd;" d="M0 1069h178v-534h178v-357h179v357h-179v712h-356v-178zM178 -178h178v356h-178v-356zM535 535h178v-179h356v-178h178v357h-534v356h-178v-356zM713 0v-178h534v178h-178v178h-178v-178h-178zM713 891h178v356h-178v-356z" />
<glyph unicode="&#xbe;" d="M0 535h356v-357h179v357h178v-535h356v-178h178v713h-178v-357h-178v357h-178v356h-178v356h-535v-178h356v-178h-178v-178h-178v-178zM178 -178h178v356h-178v-356zM713 891h178v356h-178v-356z" />
<glyph unicode="&#xbf;" d="M178 178h178v-178h713v178h178v178h-356v-178h-356v357h356v178h178v178h-356v-178h-357v-178h-178v-357zM891 1069h356v178h-356v-178z" />
<glyph unicode="&#xc0;" d="M0 0v-178h178v178h-178zM178 0h178v178h-178v-178zM356 178h713v-356h178v1247h-178v178h-178v-178h178v-178h-178v-178h178v-357h-356v179h-178v-179h-179v-178zM713 535h178v178h-178v-178z" />
<glyph unicode="&#xc1;" d="M0 0v-178h178v178h-178zM178 0h178v178h-178v-178zM356 178h713v-356h178v1069h-178v178h-178v-356h178v-357h-356v179h-178v-179h-179v-178zM713 535h178v178h-178v-178zM1069 1069h178v178h-178v-178z" />
<glyph unicode="&#xc2;" d="M0 0v-178h178v178h-178zM178 0h178v178h-178v-178zM356 178h713v-356h178v1069h-356v178h-178v-178h178v-178h178v-357h-356v179h-178v-179h-179v-178zM713 535h178v178h-178v-178zM891 1069h356v-178h178v178h-178v178h-356v-178z" />
<glyph unicode="&#xc3;" d="M0 0v-178h178v178h-178zM178 0h178v178h-178v-178zM356 178h713v-356h178v1247h-178v178h-178v-178h-178v-178h178v-178h178v-357h-356v179h-178v-179h-179v-178zM713 535h178v178h-178v-178zM891 891v178h178v-178h-178zM1247 1069h178v178h-178v-178z" />
<glyph unicode="&#xc4;" d="M0 0v-178h178v178h-178zM178 0h178v178h-178v-178zM356 178h713v-356h178v1069h-356v-178h178v-357h-356v179h-178v-179h-179v-178zM713 535h178v178h-178v-178zM713 1069h178v178h-178v-178zM1247 1069h178v178h-178v-178z" />
<glyph unicode="&#xc5;" d="M0 0v-178h178v178h-178zM178 0h178v178h-178v-178zM356 178h713v-356h178v891h178v534h-534v-534h178v-357h-356v179h-178v-179h-179v-178zM713 535h178v178h-178v-178zM1069 891v178h178v-178h-178z" />
<glyph unicode="&#xc6;" d="M0 0h178v356h-178v-356zM178 356h178v179h357v-535h534v178h-356v357h356v178h-356v356h534v178h-890v-178h178v-356h-178v356h-179v-356h-178v-357z" />
<glyph unicode="&#xc7;" d="M0 356h178v-178h178v-178h-178v-178h357v356h356v178h-713v357h-178v-357zM178 713h178v178h-178v-178zM356 891h179v178h-179v-178zM535 1069h534v-178h178v178h-178v178h-534v-178zM891 356h178v179h-178v-179z" />
<glyph unicode="&#xc8;" d="M0 -178h1069v178h-891v178h-178v-356zM178 178h178v178h713v179h-534v178h712v178h-178v178h-178v178h-178v-178h178v-178h-535v-356h-178v-357z" />
<glyph unicode="&#xc9;" d="M0 -178h1069v178h-891v178h-178v-356zM178 178h178v178h713v179h-534v178h712v178h-356v178h-178v-178h-357v-356h-178v-357zM891 1069h178v178h-178v-178z" />
<glyph unicode="&#xca;" d="M0 -178h1069v178h-891v178h-178v-356zM178 178h178v178h713v179h-534v178h712v356h-178v178h-356v-178h-178v-178h-179v-356h-178v-357zM713 891v178h356v-178h-356z" />
<glyph unicode="&#xcb;" d="M0 -178h1069v178h-891v178h-178v-356zM178 178h178v178h713v179h-534v178h712v178h-891v-356h-178v-357zM713 1069h178v178h-178v-178zM1247 1069h178v178h-178v-178z" />
<glyph unicode="&#xcc;" d="M178 0v-178h535v178h-178v178h-179v-178h-178zM535 178h178v357h-178v-357zM535 713h178v-178h178v178h178v356h-178v178h-178v-178h178v-178h-356v-178z" />
<glyph unicode="&#xcd;" d="M178 0v-178h535v178h-178v178h-179v-178h-178zM535 178h178v357h-178v-357zM535 713h178v-178h178v178h178v178h-178v178h-178v-178h-178v-178zM891 1069h178v178h-178v-178z" />
<glyph unicode="&#xce;" d="M178 0v-178h535v178h-178v178h-179v-178h-178zM535 178h178v357h-178v-357zM535 713h178v-178h178v178h178v178h-356v178h-178v-356zM713 1069h356v-178h178v178h-178v178h-356v-178z" />
<glyph unicode="&#xcf;" d="M178 0v-178h535v178h-178v178h-179v-178h-178zM535 178h178v357h-178v-357zM535 713h178v-178h178v178h178v178h-534v-178zM713 1069h178v178h-178v-178zM1247 1069h178v178h-178v-178z" />
<glyph unicode="&#xd0;" d="M0 0h891v178h-713v178h-178v-356zM0 535h178v-179h178v179h357v178h-178v356h534v-713h178v713h-178v178h-713v-534h-356v-178zM891 178h178v178h-178v-178z" />
<glyph unicode="&#xd1;" d="M0 -178h178v356h-178v-356zM178 178h178v357h-178v-357zM356 535h179v-179h178v-178h178v-356h178v713h-178v-179h-178v179h-178v356h-179v-356zM535 891h178v178h-178v-178zM713 1069h178v-178h178v-356h178v356h-178v178h-178v178h-178v-178zM1069 1069h178v178h-178 v-178z" />
<glyph unicode="&#xd2;" d="M0 0h178v-178h713v178h-713v356h-178v-356zM178 356h178v357h-178v-357zM356 713h713v-357h178v357h-178v356h-178v178h-178v-178h178v-178h-535v-178zM891 0h178v356h-178v-356z" />
<glyph unicode="&#xd3;" d="M0 0h178v-178h713v178h-713v356h-178v-356zM178 356h178v357h-178v-357zM356 713h713v-357h178v357h-178v178h-178v178h-178v-178h-357v-178zM891 0h178v356h-178v-356zM891 1069h178v178h-178v-178z" />
<glyph unicode="&#xd4;" d="M0 0h178v-178h713v178h-713v356h-178v-356zM178 356h178v357h-178v-357zM356 713h713v-357h178v357h-178v178h-356v178h-178v-178h-179v-178zM713 1069h356v-178h178v178h-178v178h-356v-178zM891 0h178v356h-178v-356z" />
<glyph unicode="&#xd5;" d="M0 0h178v-178h713v178h-713v356h-178v-356zM178 356h178v357h-178v-357zM356 713h713v-357h178v357h-178v356h-178v178h-178v-178h-178v-178h-179v-178zM713 891v178h178v-178h-178zM891 0h178v356h-178v-356zM1069 1069h178v178h-178v-178z" />
<glyph unicode="&#xd6;" d="M0 0h178v-178h713v178h-713v356h-178v-356zM178 356h178v357h-178v-357zM356 713h713v-357h178v357h-178v178h-713v-178zM535 1069h178v178h-178v-178zM891 0h178v356h-178v-356zM1069 1069h178v178h-178v-178z" />
<glyph unicode="&#xd7;" d="M356 178h179v178h-179v-178zM356 535h179v-179h178v-178h178v178h-178v179h-178v178h-179v-178zM713 535h178v178h-178v-178z" />
<glyph unicode="&#xd8;" d="M0 178h178v-356h178v178h535v178h-356v178h-179v-178h-178v357h-178v-357zM178 535h178v356h-178v-356zM356 891h357v-178h178v178h178v-356h178v356h-178v356h-178v-178h-535v-178zM535 356h178v357h-178v-357zM891 178h178v357h-178v-357z" />
<glyph unicode="&#xd9;" d="M0 0h178v-178h535v178h-535v356h-178v-356zM178 356h178v535h-178v-535zM535 1069h178v-178h178v-535h178v535h-178v178h-178v178h-178v-178zM713 0h178v356h-178v-356z" />
<glyph unicode="&#xda;" d="M0 0h178v-178h535v178h-535v356h-178v-356zM178 356h178v535h-178v-535zM535 891h178v178h-178v-178zM713 0h178v356h-178v-356zM713 1069h178v178h-178v-178zM891 356h178v535h-178v-535z" />
<glyph unicode="&#xdb;" d="M0 0h178v-178h535v178h-535v356h-178v-356zM178 356h178v357h-178v-357zM356 891h179v178h-179v-178zM535 1069h356v-178h178v178h-178v178h-356v-178zM713 0h178v356h-178v-356zM891 356h178v357h-178v-357z" />
<glyph unicode="&#xdc;" d="M0 0h178v-178h535v178h-535v356h-178v-356zM178 356h178v535h-178v-535zM535 1069h178v178h-178v-178zM713 0h178v356h-178v-356zM891 356h178v535h-178v-535zM1069 1069h178v178h-178v-178z" />
<glyph unicode="&#xdd;" d="M178 0v-178h178v178h-178zM178 535h178v-535h179v356h178v179h-357v356h-178v-356zM713 535h356v178h-356v-178zM713 891h178v178h-178v-178zM891 1069h178v178h-178v-178zM1069 713h178v178h-178v-178z" />
<glyph unicode="&#xde;" d="M178 0h178v178h713v178h-534v357h-179v-357h-178v-356zM535 713h534v-357h178v357h-178v178h-356v178h-178v-356z" />
<glyph unicode="&#xdf;" d="M0 -178h178v356h-178v-356zM178 178h178v-178h535v178h-535v357h-178v-357zM356 535h179v356h-179v-356zM535 891h356v-178h178v178h-178v178h-356v-178zM713 535h178v-357h178v357h-178v178h-178v-178z" />
<glyph unicode="&#xe0;" d="M178 0h178v-178h357v178h-357v356h-178v-356zM356 356h179v179h-179v-179zM535 535h356v-357h178v357h-178v178h-356v-178zM535 1069h178v-178h178v178h-178v178h-178v-178zM713 0h178v-178h178v178h-178v178h-178v-178z" />
<glyph unicode="&#xe1;" d="M178 0h178v-178h357v178h-357v356h-178v-356zM356 356h179v179h-179v-179zM535 535h356v-357h178v357h-178v178h-356v-178zM713 0h178v-178h178v178h-178v178h-178v-178zM713 891h178v178h-178v-178zM891 1069h178v178h-178v-178z" />
<glyph unicode="&#xe2;" d="M178 0h178v-178h357v178h-357v356h-178v-356zM356 356h179v179h-179v-179zM356 891h179v178h-179v-178zM535 535h356v-357h178v357h-178v178h-356v-178zM535 1069h356v-178h178v178h-178v178h-356v-178zM713 0h178v-178h178v178h-178v178h-178v-178z" />
<glyph unicode="&#xe3;" d="M178 0h178v-178h357v178h-357v356h-178v-356zM356 356h179v179h-179v-179zM535 535h356v-357h178v357h-178v178h-356v-178zM535 891h178v178h-178v-178zM713 0h178v-178h178v178h-178v178h-178v-178zM713 1069h178v-178h178v178h-178v178h-178v-178zM1069 1069h178v178 h-178v-178z" />
<glyph unicode="&#xe4;" d="M178 0h178v-178h357v178h-357v356h-178v-356zM356 356h179v179h-179v-179zM356 1069h179v178h-179v-178zM535 535h356v-357h178v357h-178v178h-356v-178zM713 0h178v-178h178v178h-178v178h-178v-178zM891 1069h178v178h-178v-178z" />
<glyph unicode="&#xe5;" d="M178 0h178v-178h357v178h-357v356h-178v-356zM356 356h179v179h-179v-179zM535 535h356v-357h178v357h-178v178h356v534h-534v-534h-178v-178zM713 0h178v-178h178v178h-178v178h-178v-178zM891 891v178h178v-178h-178z" />
<glyph unicode="&#xe6;" d="M0 178h178v-178h357v178h-357v357h-178v-357zM178 535h178v178h-178v-178zM356 713h357v-357h-178v-178h178v-178h534v178h-356v178h356v179h-356v178h-178v178h-357v-178zM891 713h356v-178h178v178h-178v178h-356v-178z" />
<glyph unicode="&#xe7;" d="M178 356h178v-178h179v-178h-179v-178h357v356h178v178h-535v357h-178v-357zM356 713h179v178h-179v-178zM535 891h356v178h-356v-178z" />
<glyph unicode="&#xe8;" d="M178 0h178v-178h535v178h-535v178h713v357h-178v178h-356v-178h356v-179h-356v179h-179v-179h-178v-356zM535 1069h178v-178h178v178h-178v178h-178v-178z" />
<glyph unicode="&#xe9;" d="M178 0h178v-178h535v178h-535v178h713v357h-178v178h-356v-178h356v-179h-356v179h-179v-179h-178v-356zM713 891h178v178h-178v-178zM891 1069h178v178h-178v-178z" />
<glyph unicode="&#xea;" d="M178 0h178v-178h535v178h-535v178h713v357h-178v178h-356v-178h356v-179h-356v179h-179v-179h-178v-356zM356 891h179v178h-179v-178zM535 1069h356v-178h178v178h-178v178h-356v-178z" />
<glyph unicode="&#xeb;" d="M178 0h178v-178h535v178h-535v178h713v357h-178v178h-356v-178h356v-179h-356v179h-179v-179h-178v-356zM535 1069h178v178h-178v-178zM1069 1069h178v178h-178v-178z" />
<glyph unicode="&#xec;" d="M356 0h179v356h-179v-356zM535 356h178v357h-178v-357zM535 1069h178v-178h178v178h-178v178h-178v-178z" />
<glyph unicode="&#xed;" d="M356 0h179v356h-179v-356zM535 356h178v357h-178v-357zM535 891h178v178h-178v-178zM713 1069h178v178h-178v-178z" />
<glyph unicode="&#xee;" d="M356 0h179v356h-179v-356zM356 891h179v178h-179v-178zM535 356h178v357h-178v-357zM535 1069h356v-178h178v178h-178v178h-356v-178z" />
<glyph unicode="&#xef;" d="M356 0h179v356h-179v-356zM356 1069h179v178h-179v-178zM535 356h178v357h-178v-357zM891 1069h178v178h-178v-178z" />
<glyph unicode="&#xf0;" d="M178 0h178v-178h535v534h178v-178h178v178h-178v357h-178v178h-178v-178h178v-178h-535v-179h357v-356h-357v356h-178v-356zM1069 713h178v356h-178v-356z" />
<glyph unicode="&#xf1;" d="M178 -178h178v356h-178v-356zM356 178h179v178h178v179h-178v178h-179v-535zM535 891h178v178h-178v-178zM713 -178h178v356h-178v-356zM713 535h178v-357h178v357h-178v178h-178v-178zM713 1069h178v-178h178v178h-178v178h-178v-178zM1069 1069h178v178h-178v-178z" />
<glyph unicode="&#xf2;" d="M178 0h178v-178h357v178h-357v356h-178v-356zM356 356h179v179h-179v-179zM535 535h356v-357h178v357h-178v178h-356v-178zM535 1069h178v-178h178v178h-178v178h-178v-178zM713 0h178v178h-178v-178z" />
<glyph unicode="&#xf3;" d="M178 0h178v-178h357v178h-357v356h-178v-356zM356 356h179v179h-179v-179zM535 535h356v-357h178v357h-178v178h-356v-178zM713 0h178v178h-178v-178zM713 891h178v178h-178v-178zM891 1069h178v178h-178v-178z" />
<glyph unicode="&#xf4;" d="M178 0h178v-178h357v178h-357v356h-178v-356zM356 356h179v179h-179v-179zM356 891h179v178h-179v-178zM535 535h356v-357h178v357h-178v178h-356v-178zM535 1069h356v-178h178v178h-178v178h-356v-178zM713 0h178v178h-178v-178z" />
<glyph unicode="&#xf5;" d="M178 0h178v-178h357v178h-357v356h-178v-356zM356 356h179v179h-179v-179zM535 535h356v-357h178v357h-178v178h-356v-178zM535 891h178v178h-178v-178zM713 0h178v178h-178v-178zM713 1069h178v-178h178v178h-178v178h-178v-178zM1069 1069h178v178h-178v-178z" />
<glyph unicode="&#xf6;" d="M178 0h178v-178h357v178h-357v356h-178v-356zM356 356h179v179h-179v-179zM356 1069h179v178h-179v-178zM535 535h356v-357h178v357h-178v178h-356v-178zM713 0h178v178h-178v-178zM891 1069h178v178h-178v-178z" />
<glyph unicode="&#xf7;" d="M356 356h535v179h-535v-179zM535 0h178v178h-178v-178zM535 713h178v178h-178v-178z" />
<glyph unicode="&#xf8;" d="M178 178h178v-356h179v178h178v178h-178v178h-179v179h-178v-357zM356 535h179v-179h178v-178h178v178h-178v179h-178v178h-179v-178zM535 713h178v-178h178v-179h178v357h-178v356h-178v-178h-178v-178z" />
<glyph unicode="&#xf9;" d="M178 0h178v-178h357v178h-357v356h-178v-356zM356 356h179v357h-179v-357zM535 1069h178v-178h178v178h-178v178h-178v-178zM713 0h178v-178h178v178h-178v356h-178v-356zM891 356h178v357h-178v-357z" />
<glyph unicode="&#xfa;" d="M178 0h178v-178h357v178h-357v356h-178v-356zM356 356h179v357h-179v-357zM713 0h178v-178h178v178h-178v356h-178v-356zM713 891h178v178h-178v-178zM891 356h178v357h-178v-357zM891 1069h178v178h-178v-178z" />
<glyph unicode="&#xfb;" d="M178 0h178v-178h357v178h-357v356h-178v-356zM356 356h179v357h-179v-357zM356 891h179v178h-179v-178zM535 1069h356v-178h178v178h-178v178h-356v-178zM713 0h178v-178h178v178h-178v356h-178v-356zM891 356h178v357h-178v-357z" />
<glyph unicode="&#xfc;" d="M178 0h178v-178h357v178h-357v356h-178v-356zM356 356h179v357h-179v-357zM356 1069h179v178h-179v-178zM713 0h178v-178h178v178h-178v356h-178v-356zM891 356h178v357h-178v-357zM891 1069h178v178h-178v-178z" />
<glyph unicode="&#xfd;" d="M178 0v-178h178v178h-178zM356 0h179v178h-179v-178zM356 713h179v-535h178v178h178v179h-178v178h-178v178h-179v-178zM713 891h178v178h-178v-178zM891 535h178v178h-178v-178zM891 1069h178v178h-178v-178zM1069 713h178v178h-178v-178z" />
<glyph unicode="&#xfe;" d="M0 0v-178h178v178h-178zM178 0h178v178h713v178h-534v357h-179v-357h-178v-356zM535 713h534v-357h178v357h-178v178h-356v178h-178v-356zM713 1069h178v178h-178v-178z" />
<glyph unicode="&#xff;" d="M178 0v-178h178v178h-178zM356 0h179v178h-179v-178zM356 713h179v-535h178v178h178v179h-178v178h-178v178h-179v-178zM535 1069h178v178h-178v-178zM891 535h178v178h-178v-178zM1069 713h178v178h-178v-178zM1069 1069h178v178h-178v-178z" />
<glyph unicode="&#x152;" d="M0 178h178v-178h1069v178h-356v357h356v178h-356v356h534v178h-1069v-356h179v178h178v-891h-535v357h-178v-357zM178 535h178v356h-178v-356z" />
<glyph unicode="&#x153;" d="M0 178h178v-178h1069v178h-356v178h356v179h-356v178h-178v178h-357v-178h357v-535h-535v357h-178v-357zM178 535h178v178h-178v-178zM891 713h356v-178h178v178h-178v178h-356v-178z" />
<glyph unicode="&#x178;" d="M178 0v-178h178v178h-178zM178 535h178v-535h179v356h178v179h-357v356h-178v-356zM535 1069h178v178h-178v-178zM713 535h356v178h-356v-178zM1069 713h178v178h-178v-178zM1069 1069h178v178h-178v-178z" />
<glyph unicode="&#x2c6;" d="M178 891h178v178h-178v-178zM356 1069h357v-178h178v178h-178v178h-357v-178z" />
<glyph unicode="&#x2dc;" d="M178 891h178v178h-178v-178zM356 1069h179v-178h178v178h-178v178h-179v-178zM713 1069h178v178h-178v-178z" />
<glyph unicode="&#x2000;" horiz-adv-x="682" />
<glyph unicode="&#x2001;" horiz-adv-x="1365" />
<glyph unicode="&#x2002;" horiz-adv-x="682" />
<glyph unicode="&#x2003;" horiz-adv-x="1365" />
<glyph unicode="&#x2004;" horiz-adv-x="455" />
<glyph unicode="&#x2005;" horiz-adv-x="341" />
<glyph unicode="&#x2006;" horiz-adv-x="227" />
<glyph unicode="&#x2007;" horiz-adv-x="227" />
<glyph unicode="&#x2008;" horiz-adv-x="170" />
<glyph unicode="&#x2009;" horiz-adv-x="273" />
<glyph unicode="&#x200a;" horiz-adv-x="75" />
<glyph unicode="&#x2010;" d="M178 356h891v179h-891v-179z" />
<glyph unicode="&#x2011;" d="M178 356h891v179h-891v-179z" />
<glyph unicode="&#x2012;" d="M178 356h891v179h-891v-179z" />
<glyph unicode="&#x2013;" d="M178 356h535v179h-535v-179z" />
<glyph unicode="&#x2014;" d="M0 356h1247v179h-1247v-179z" />
<glyph unicode="&#x2018;" d="M178 713h357v178h-179v178h-178v-356zM356 1069h179v178h-179v-178z" />
<glyph unicode="&#x2019;" d="M178 713h178v178h-178v-178zM178 1069h178v-178h179v356h-357v-178z" />
<glyph unicode="&#x201a;" d="M178 0v-178h178v178h-178zM178 178h178v-178h179v356h-357v-178z" />
<glyph unicode="&#x201c;" d="M178 713h357v178h-179v178h-178v-356zM356 1069h179v178h-179v-178zM713 713h356v178h-178v178h-178v-356zM891 1069h178v178h-178v-178z" />
<glyph unicode="&#x201d;" d="M178 713h178v178h-178v-178zM178 1069h178v-178h179v356h-357v-178zM713 713h178v178h-178v-178zM713 1069h178v-178h178v356h-356v-178z" />
<glyph unicode="&#x201e;" d="M178 0v-178h178v178h-178zM178 178h178v-178h179v356h-357v-178zM713 0v-178h178v178h-178zM713 178h178v-178h178v356h-356v-178z" />
<glyph unicode="&#x2022;" d="M178 356h357v357h-357v-357z" />
<glyph unicode="&#x2026;" d="M0 0h356v356h-356v-356zM535 0h356v356h-356v-356zM1069 0h356v356h-356v-356z" />
<glyph unicode="&#x202f;" horiz-adv-x="273" />
<glyph unicode="&#x2039;" d="M178 356h178v-178h179v178h-179v179h-178v-179zM356 535h179v178h-179v-178z" />
<glyph unicode="&#x203a;" d="M178 178h178v178h-178v-178zM178 535h178v-179h179v179h-179v178h-178v-178z" />
<glyph unicode="&#x205f;" horiz-adv-x="341" />
<glyph unicode="&#x2122;" d="M0 535h178v356h-178v-356zM0 1069h178v-178h178v178h179v178h-535v-178zM535 535h178v356h-178v-356zM713 891h178v-178h178v178h-178v356h-178v-356zM1069 891h178v-356h178v712h-178v-178h-178v-178z" />
<glyph unicode="&#x25fc;" horiz-adv-x="890" d="M0 0v891h891v-891h-891z" />
</font>
</defs>
</svg>
